<?xml version="1.0" encoding="UTF-8"?>
<svg id="Capa_1" data-name="Capa 1" xmlns="http://www.w3.org/2000/svg" viewBox="0 0 595.28 595.28">
  <defs>
    <style>
      .cls-1 {
        fill: #727272;
      }

      .cls-2 {
        fill: #84cee0;
      }

      .cls-3 {
        fill: #4c4d4c;
      }

      .cls-4 {
        fill: #8f9090;
      }

      .cls-5 {
        fill: #67ab9f;
      }

      .cls-6 {
        fill: #82bd4d;
      }

      .cls-7 {
        fill: #7c7c7c;
      }

      .cls-8 {
        fill: #62a99d;
      }

      .cls-9 {
        fill: #5fa79b;
      }

      .cls-10 {
        fill: #48b48a;
      }

      .cls-11 {
        fill: #2aa0bd;
      }

      .cls-12 {
        fill: #f6eb79;
      }

      .cls-13 {
        fill: #85c493;
      }
    </style>
  </defs>
  <g>
    <g>
      <path class="cls-11" d="M127.93,252.96c11.78-11.64,22.12-7.79,31.6,9.72,2.29-4.6,4.73-8.38,7.57-11.21,14.95-14.86,31.72,3.8,35.33,32.41,.59,4.65,.93,9.32,.92,14.15-.04,19.16-.02,38.33,0,57.49,0,3.06-.07,6.01-.94,8.71-1.51,4.71-4.28,7.03-6.76,6.05-2.52-1-5.37-7-5.31-12.97,.19-17.9-.09-35.81,.13-53.7,.11-9.1-1.43-16.75-3.92-23.84-3.05-8.68-12.93-9.11-16.3-.8-2.75,6.78-4.41,14.09-4.23,23.39,.32,17.12,.08,34.29,.1,51.43,0,3.06-.07,6.01-.76,8.82-1.24,5.08-4.31,8.87-6.66,8.1-3.24-1.06-5.81-6.34-5.94-12.84-.14-6.55-.04-13.11-.04-19.67,0-13.36,.07-26.73-.03-40.09-.08-11.73-4.12-21.74-9.7-24.65-4.51-2.35-8.66,1-11.44,8.68-2.23,6.16-3.26,12.78-3.21,20.4,.11,17.65,0,35.3,.06,52.95,.01,4.23-.27,8.19-1.96,10.94-1.87,3.04-3.9,5.7-6.54,3.64-2.7-2.11-4.4-6.71-4.41-12.74-.03-32.02,.04-64.05-.06-96.07-.02-6.59,1.07-11.4,4.07-13.9,2.9-2.41,5.37-.24,7.48,3.99,.26,.52,.56,.96,.94,1.6Z"/>
      <path class="cls-11" d="M503.74,254.3c0-10.25,0-20.55,0-30.86,0-4.54-.06-9.08,.02-13.61,.11-6.44,2.43-11.72,5.41-12.62,3.38-1.03,6.35,2.46,7.38,8.97,.37,2.36,.66,4.98,.56,7.41-.78,17.86-.27,35.75-.33,53.62-.1,29.49-.06,58.98,0,88.47,.01,4.86-.51,8.88-2.48,11.98-2.58,4.04-5.85,4-8.23-.46-.81-1.52-1.45-3.43-2.19-5.24-1.25-.8-2.09,1.17-3.05,2.13-13.68,13.71-28.24,5.54-36.59-17.71-6.47-18.04-7.83-38.57-3.99-60.16,2.67-15.01,7.31-26.2,14.36-33.33,8.82-8.92,17.67-8.27,26.45,.37,.66,.65,1.22,1.84,2.69,1.04Zm-.03,56.52c.1-15.07-3.39-24.91-8.02-32.82-2.89-4.94-6.81-5.88-10.74-4.51-4.13,1.43-6.96,6.41-9.4,12.61-8.24,20.92-3.77,46.2,8.18,56.45,4.46,3.83,8.4,.28,12.19-5.03,5.04-7.06,7.36-16.72,7.8-26.71Z"/>
      <path class="cls-11" d="M432.07,256.35c.76-2.08,1.27-3.82,1.94-5.29,3.51-7.68,9.05-5.26,10.75,4.66,.41,2.4,.55,4.87,.55,7.43-.02,30.52-.03,61.03,0,91.55,0,5.61-.69,10.47-3.18,13.66-2.86,3.65-5.04,3.28-7.53-1.32-.91-1.68-1.71-3.61-2.51-5.33-1.71,.38-2.91,2.4-4.25,3.7-12.72,12.36-28.08,2.29-35.09-20.63-5.46-17.85-6.96-37.13-3.43-57.71,4.34-25.31,13.29-38.36,26.22-40.8,4.64-.87,9.21,2,13.4,6.48,.99,1.06,1.95,2.23,3.14,3.6Zm-31.32,52.61c-.3,7.18,.73,14.54,3.04,20.7,3.05,8.13,6.72,14.39,12.38,14.64,5.24,.23,8.76-5.4,11.85-12.29,3.98-8.86,4.68-19.97,3.75-31.25-.83-10.07-3.77-18.32-7.91-23.75-6.2-8.14-13.03-5.06-18.15,6.01-3.37,7.27-5.08,15.44-4.95,25.95Z"/>
      <path class="cls-11" d="M233.66,318.78c.38,5.35,1.54,9.9,3.48,13.74,4.99,9.86,10.63,15.57,17.88,11.72,1.45-.77,2.78-1.29,3.97-3.61,1.22-2.4,2.83-4.13,4.39-5.69,2.63-2.65,5.8-1.55,7.15,2.67,1.58,4.94,2.75,11.59-.24,17.04-3.92,7.15-8.45,11.9-13.54,14.24-11,5.06-21.01,.39-28.68-16.25-8.62-18.72-11.13-41.06-6.93-65.74,3.27-19.21,9.73-31.9,19.37-38.09,14.49-9.29,30.92,8.13,35,34.15,.9,5.77,1.73,11.45,2.17,17.44,.8,10.8-1.58,16.96-7,17.39-.75,.06-1.51,.01-2.27,.01-10.33,0-20.66-.03-30.99,.04-1.22,0-2.51-.72-3.78,.92Zm32.49-22.27c-2.98-19.55-12.22-28.35-19.76-26.45-6.38,1.6-12.76,12.5-13.22,26.45h32.99Z"/>
      <path class="cls-11" d="M532.49,308.4c.86-26.14,6.08-46.9,18.67-57.81,9.67-8.38,20.63-4.04,28.47,9.63,10.89,19.01,13.28,53.81,7.33,77.98-4.97,20.19-15.89,36.24-28.85,32.56-9.91-2.81-17.42-13.4-21.87-31.88-1.15-4.76-2.34-9.46-2.86-14.67-.52-5.16-1.12-10.33-.88-15.81Zm44.7,.24c.51-13.06-2.58-23.05-7.47-30.37-5.79-8.68-15.31-6.97-20.76,8.55-4.66,13.28-4.1,42.73,4.44,52.71,4.78,5.59,9.51,6.81,13.85,2.5,6.52-6.48,10.44-17.74,9.94-33.39Z"/>
      <path class="cls-11" d="M327.39,307.88c.12-29.69,9.94-53.37,23.99-60.02,9.21-4.35,17.76-.01,25.29,11.19,4.64,6.9,3.78,16.24-.29,23.67-1.96,3.58-5.13,2.51-7.2-1.52-5.92-11.52-15.95-11.09-22.02,.24-2.56,4.78-4.76,9.84-5.88,16.33-2.23,12.83-.92,24.58,3.89,34.04,3.76,7.38,7.99,13.6,13.83,12.46,2.26-.44,4.25-1.11,6.2-4.08,1.44-2.19,3.18-3.94,4.82-5.78,2.83-3.19,6.17-1.89,8.14,2.93,1.92,4.72,2.05,13.03,.19,17.54-2.77,6.71-6.72,9.92-10.61,12.57-13.52,9.21-27.32-2.02-34.05-20.99-4.27-12.03-6.67-23.56-6.3-38.57Z"/>
      <path class="cls-11" d="M301.39,259.71c5.39-8.57,10.93-13.31,17.41-12.76,3.81,.33,6.28,5.01,6.4,12.08,.12,6.52-2.51,13.53-5.86,13.32-6.23-.39-9.59,7.42-12.72,16.02-3.7,10.17-6.02,21.25-5.65,34.38,.33,11.56,.12,23.19,.05,34.79-.04,6.18-1.69,10.32-4.61,12.29-2.61,1.76-5.01,.08-7.05-4.39-1.45-3.19-1.32-6.91-1.32-10.67,0-28.75,0-57.49,0-86.24,0-2.52-.02-5.04,0-7.56,.07-7.77,1.88-12.66,5.08-13.85,3.49-1.29,6.31,1.97,7.74,9,.18,.9,.27,1.88,.51,3.59Z"/>
      <path class="cls-9" d="M87.89,294.04c3.07,.04,5.72,5.41,5.68,11.51-.04,6.14-2.72,11.27-5.84,11.18-3.4-.09-5.55-4.59-5.52-11.5,.04-6.86,2.25-11.23,5.68-11.18Z"/>
      <path class="cls-5" d="M59.01,278.13c4.21,7.42,3.03,16.9,4.21,24.92-2.34,3.88-5.4,3.96-7.83,.15,.43-5.4,2.76-3.79,4.4-4.55,0-6.66-3.31-12.72-.79-20.51Z"/>
      <path class="cls-5" d="M5.36,303.48c-.66-5.25,.32-9.51,.75-13.87,.2-2.07,1-3.74,2.2-2.87,1.08,.78,1.49,2.67,1.04,4.89-.43,2.12-.76,4.19-.27,6.54,1.4,1.43,2.93,.49,4.39,.74,1.13,.2,2.04,1.21,2.02,3.53-.02,2.34-.97,3.51-2.09,3.34-2.66-.42-5.52,1.63-8.05-2.3Z"/>
      <path class="cls-8" d="M16.44,347.97c-.82,3.44-2.02,4.64-3.38,1.46-1.26-2.97-2.73-5.77-3.29-9.79-.3-2.14-1.06-4.39,.42-5.74,1.32-1.2,2.09,.79,2.71,2.71,1.2,3.7,2.33,7.47,3.54,11.36Z"/>
      <path class="cls-5" d="M47.79,305.78c-.99,0-1.99,.09-2.98-.03-.98-.12-1.68-1.27-1.75-3.21-.07-2.01,.67-3.37,1.59-3.46,2.1-.21,4.22-.21,6.32,0,.93,.1,1.63,1.48,1.55,3.51-.08,1.95-.77,3.08-1.76,3.17-.99,.09-1.98,.02-2.98,.02Z"/>
      <path class="cls-5" d="M18.15,262.15c-1.71-2.15-2.14-4.43-.55-6.65,1.63-2.27,3.43-4.09,5.18-6.01,1.11-1.23,1.98-.27,2.47,1.78,.47,1.98-.17,3.41-.98,4.31-1.95,2.19-3.94,4.25-6.13,6.58Z"/>
      <path class="cls-8" d="M57.21,333.77c1.65,3.26,1.99,5.75,.43,9.32-1.4,3.19-1.99,9.18-5.14,7.93-.47-.19-.76-1.21-.94-3.2,2.49-3.2,2.51-11,5.66-14.06Z"/>
      <path class="cls-8" d="M37.33,248.68c-.26,1.97-.95,2.85-1.93,2.82-1.75-.06-3.49-.19-5.21,.94-1.14,.75-1.99-.6-2.21-2.88-.2-2.07,.56-3.09,1.44-3.81,3.17-2.63,6.19-1.54,7.92,2.93Z"/>
      <path class="cls-5" d="M18.26,303.38c.21-2.2,.68-3.56,1.42-3.88,2.32-.99,4.69-.93,7.02-.03,.61,.24,1.03,1.43,1.06,2.8,.04,1.37-.35,2.36-.93,3-1.37,1.53-6.86,.36-8.57-1.89Z"/>
      <path class="cls-8" d="M40.05,250.44c.75-3.15,1.68-3.7,2.74-2.95,1.65,1.18,3.32,2.39,4.88,3.98,1.91,1.95,1.73,4.46,.03,7.28-2.55-2.58-5.74-2.82-7.65-8.32Z"/>
      <path class="cls-5" d="M19.29,351.89c2.1,2.06,4,3.95,5.91,5.79,1.14,1.1,1.37,2.92,.91,5-.43,1.9-1.21,2.11-2.21,1.45-1.81-1.21-3.48-2.87-4.99-5.2-1.56-2.41-1.16-4.58,.39-7.04Z"/>
      <path class="cls-5" d="M37.73,360.8c.87,2.62,.89,4.45,.07,6.72-2.06,.81-4.32,.24-6.55,.19-1.11-.03-1.95-1.36-1.8-3.84,.11-1.97,.84-3.03,1.84-3.05,2.13-.03,4.26-.01,6.44-.01Z"/>
      <path class="cls-5" d="M39.47,305.4c-2.26,.83-4.6,.43-6.93,.31-.95-.05-1.69-1.35-1.67-3.34,.02-1.95,.76-3.24,1.7-3.33,1.86-.18,3.74-.38,5.58,.04,1.75,.41,2.2,2.74,1.32,6.32Z"/>
      <path class="cls-8" d="M50.34,356.57c-1.63,4.62-4.21,5.68-6.41,7.88-.87,.87-1.76,.15-2.26-1.59-.57-1.99,0-3.49,.81-4.38,1.65-1.81,3.32-3.54,5.06-4.97,1.18-.97,2.22-.29,2.81,3.05Z"/>
      <path class="cls-5" d="M15.63,266.8c-1.82,5.16-3.58,10.14-5.4,15.31-1.95-5.84-1.39-9.97,1.83-16.27,1.2-2.35,2.26-3.23,3.57,.96Z"/>
      <path class="cls-8" d="M52.57,259.22c.28,.29,.8,.57,1.13,1.23,1.33,2.68,2.64,5.41,3.88,8.27,.62,1.43,.79,3.37,.03,4.78-.89,1.65-1.88,1.18-2.65-.55-1.25-2.81-2.34-5.88-3.88-8.17-.51-.75-.57-2.2-.21-3.46,.33-1.16,.82-1.88,1.71-2.09Z"/>
      <path class="cls-5" d="M9.11,328.2c-2.74-1-3.99-6.73-3.58-16.57,1.06-1.38,2.05-1.39,2.84,.93,.69,2.03,1.15,12.51,.74,15.64Z"/>
    </g>
    <g>
      <path class="cls-9" d="M189.2,426.81c1.77-1.32,3.35-.8,4.8-.64,1.33,.74,.74,2.86,1.6,3.81,6.65-5.87,10.91-6.51,16.16,1.79,2.18-2.9,4.33-5.86,7.65-6.02,4.35-.2,6.66,1.83,7.99,7.77,.37,1.67,.73,3.45,.75,5.18,.08,8.33,.03,16.67,.03,24.83-2.51,1.78-4.5,1.82-6.68,.18-1.28-9.36,1.18-19.3-1.83-28.29-5.25-.92-7.09,1.24-7.53,8.98-.2,3.54,0,7.12-.06,10.68-.05,2.77,.31,5.59-.33,8.44-1.91,2.06-3.92,1.57-6.28,.46-1.45-9.34,1.07-19.29-1.84-28.32-4.39-1.34-5.01-.77-6.7,3.99-.95,2.68-.96,5.35-.96,8.14,0,5.29,0,10.57,0,15.64q-3.5,1.4-6.77,.14v-36.78Z"/>
      <path class="cls-9" d="M247.55,435.39c-5.29-.98-7.06,1.08-7.52,8.91-.22,3.79,.01,7.63-.07,11.44-.05,2.49,.41,5.07-.52,7.81-1.95,.93-3.97,.81-6.25,.02v-37.08c2.55-.36,5.32-2.68,6.34,3.71,2.6-2.07,4.95-4.51,8.17-4.57,3.5-.07,5.71,2.19,7.54,6.24,2.59-2.97,4.8-5.82,8-6.1,4.77-.42,7.18,1.99,8.26,9.02,1.47,9.52,.46,19.1,.74,28.47-2.49,1.27-4.41,1-6.56,.48-1.61-9.27,1.11-19.27-1.99-28.22-5.28-1.31-7.23,.97-7.53,9.3-.22,6.05-.04,12.13-.04,18.4-2.35,1.33-4.39,1.05-6.64,.47-1.41-9.44,1.13-19.4-1.92-28.31Z"/>
      <path class="cls-9" d="M301.24,448.92c-5.98,1.65-11.88,.04-17.67,1.03,.76,7.63,4.42,9.99,9.02,6.21q3.64-2.99,7.35-.17c-4.04,8.86-10.55,11.68-16.96,7.6-5.26-3.35-10.13-12.38-6.64-26.45,2-8.07,8.94-13.11,15.32-11.18,6.83,2.06,10.19,9.74,9.58,22.96Zm-18.84-6.41c4.22,.11,7.98,.92,11.7-.58-.54-6.73-1.66-8.62-5.04-8.9-3.64-.3-4.97,1.46-6.67,9.48Z"/>
      <path class="cls-9" d="M372.93,449.06c-5.65,1.48-11.56-.12-17.43,.93-.96,3.21,.08,4.96,1.7,6.43,2.37,2.15,4.96,2.32,7-.19,2.45-3.02,4.57-3.43,7.02-.48-2.06,7.45-8.59,11.41-14.54,8.82-7.58-3.3-11.04-12.89-8.93-24.73,1.84-10.33,7.8-15.74,15.36-13.93,7.06,1.69,10.92,10.47,9.82,23.15Zm-6.99-6.91c-.38-6.21-2.16-9.5-5.17-9.78-3.5-.33-5.29,2.44-6.27,9.96,3.84,.55,7.64,.79,11.44-.18Z"/>
      <path class="cls-9" d="M107.53,448.63c-2.86,1.98-5.95,.77-8.95,.98-2.82,.2-5.66,.04-8.51,.04-.87,4.1,.53,5.76,2.36,7.17,3.77,2.89,6.44-.31,9.04-3.4,1.92,.2,3.5,1.12,5.04,2.33-4.24,9.36-10.98,12.13-17.57,7.39-6.63-4.78-8.98-14.97-6.05-26.25,2.11-8.1,9.16-13.05,15.5-10.87,6.84,2.35,10.36,11.01,9.12,22.6Zm-18.65-6.11c4.41,.17,8.37,.74,12.31-.41-.21-5.65-2.27-8.8-5.76-9.67-2.76-.69-4.99,2.83-6.55,10.08Z"/>
      <path class="cls-9" d="M172.28,425.79c6.31-.71,13.1,6.33,13.03,20.45-.05,10.74-5.74,18.95-13.13,19.04-7.6,.09-13.52-8.55-13.35-19.49,.19-12.2,5.49-20.08,13.45-20Zm6.45,20.16c-.17-6.09-3.37-12.17-6.5-12.33-3.44-.17-6.12,4.98-6.28,12.08,0,.25,0,.51,0,.76,.03,6.76,2.46,10.4,6.72,10.08,3.61-.27,6.22-4.83,6.06-10.6Z"/>
      <path class="cls-8" d="M156.57,434.81c-1.63,1.67-3.61,2.6-5.3,5.36-1.2-3.31-2.47-5.58-4.9-5.81-3.98-.37-7.68,6.57-6.96,13.32,.86,8.12,5.15,11.43,10.06,6.96,3.07-2.79,5.01,.27,7.55,.71-2.9,7.89-8.45,11.54-14.31,9.63-5.62-1.83-10.25-9.82-10.52-18.18-.31-9.7,3.59-17.9,9.76-20.53,6.12-2.61,11.11,.21,14.61,8.54Z"/>
      <path class="cls-9" d="M345.43,455.98c-4.9,8.85-10.02,11.22-16.22,7.98-5.86-3.07-8.67-9.8-8.32-19.95,.32-9.32,3.81-15.84,9.6-17.93,6.05-2.18,10.54,.44,14.21,8.48-1.36,2.24-3.76,2.37-4.67,4.71-1.55-.13-1.55-1.76-2.15-2.57-3.12-4.24-7.28-2.89-9.03,2.72-.99,3.19-1.04,6.48-.69,9.73,.68,6.45,4.94,9.9,8.69,6.3,3.2-3.07,5.52-2.08,8.58,.54Z"/>
      <path class="cls-5" d="M420.75,443.6c.35-13.41-2.24-15.22-14.27-10.58-.62-.71-1-1.8-.47-2.61,3.53-5.35,12.46-7.31,16.69,.44,1.62,2.96,2.16,6.2,2.26,9.88,.2,7.02-.88,14.17,.97,21.07,.36,1.33-.52,2.28-1.22,2.84-2.22,.57-2.38-2.76-3.91-3.85-2.17,1.95-4.48,3.79-7.14,4.43-4.44,1.08-10.87-3.67-10-12.64,.47-4.85,3.64-9.09,7.78-9.8,1.58-.27,3.21-.19,4.81-.06,1.4,.12,2.78,.53,4.49,.88Zm.04,4.37c-5.47-2.62-6.9-2.66-10.15-.95-2.45,1.29-4.02,3.42-3.64,7.35,.36,3.7,2.05,5.81,4.57,6.53,5.77,1.64,9.59-3.56,9.22-12.93Z"/>
      <path class="cls-5" d="M64.72,426.21c1.01,12.97-.81,25.61,1.42,37.9-3.36,1.42-3.98-1.7-4.78-4.68-2.03,1.87-3.85,3.95-6.06,5.03-5.67,2.78-10.96-1.26-11.4-9.71-.48-9.3-.11-18.7-.11-28.07,2.72-1.19,3.7,.34,3.76,3.51,.06,3.31,.01,6.62,.02,9.93,0,3.31-.04,6.62,.03,9.93,.15,7.1,1.82,10.57,5.06,10.71,4.02,.17,8.32-5.5,8.45-11.49,.14-6.1,.04-12.22,.03-18.33,0-2.82,.4-5.07,3.59-4.74Z"/>
      <path class="cls-5" d="M305.37,426.57c1.89-1.02,3.46-.5,4.77-.48,1.62,1.35,.71,3.6,1.49,5.06,1.76-.32,2.45-2.76,3.77-3.98,1.46-1.35,2.95-1.66,4.62-.96,1.04,2.38,.63,4.88,.43,7.27-.84,1.85-2.28,1.55-3.4,2.13-3.21,1.66-4.84,4.89-4.92,9.61-.1,6.08-.02,12.17-.02,18.07q-3.2,1.62-6.72,.6v-37.3Z"/>
      <path class="cls-8" d="M523.02,446.54c-.04-12.4,4.78-20.61,12.18-20.7,4-.05,7.2,2.22,9.58,6.85,3.59,7.01,3.96,16.92,.87,24.32-2.65,6.35-8.49,9.73-13.35,7.75-5.81-2.37-9.24-9.12-9.27-18.22Zm11.69-16.23c-6.23-.2-9.57,12.12-7.83,20.4,1.27,6.04,4.55,10.01,8.32,10.1,3.83,.09,6.86-3.67,8.39-9.92,1.51-6.16-.19-11.44-2.23-16.41-1.18-2.89-3.52-4.16-6.66-4.18Z"/>
      <path class="cls-8" d="M477.82,446.32c.01,10.83-5.27,18.95-12.34,18.96-7.13,.01-12.34-7.96-12.35-18.87,0-12.05,4.6-20.13,11.74-20.57,7.5-.46,12.93,8.14,12.95,20.49Zm-3.38-.7c-.46-2.12-.99-5.05-1.74-7.86-2-7.47-7.75-9.82-12.16-4.94-3.63,4.02-4.26,9.88-3.92,15.73,.43,7.22,4.85,12.64,9.24,12.26,4.45-.39,8.51-7.17,8.58-15.18Z"/>
      <path class="cls-5" d="M394.94,429.36c2.16,2.08,4.39,.03,6.26,2.2-.19,6.07-4.01,1.74-6.12,4.88-.99,4.15-.05,9.75-.28,15.21-.14,3.3,0,6.62-.05,9.93-.03,1.66-.54,3.05-1.87,3.04-1.24,0-1.96-1.08-1.98-2.89-.03-3.31-.02-6.62-.02-9.93,0-5.09,0-10.18,0-14.22-.42-3.49-3.01-1.89-3.21-5-.26-2.76,2.19-1.5,3.31-3.98,0-1.88-.22-4.7,.04-7.41,.83-8.55,6.59-12.7,11.44-8.35,.57,.51,1.06,1.42,.59,3.07-1.93,2.19-5.2-1.8-7.08,2.27-1.63,3.53-1.15,7.3-1.01,11.19Z"/>
      <path class="cls-5" d="M427.65,426.88c2.31-1.5,3.61-.81,4.35,1.8,.86,3.06,1.82,6.08,2.48,9.22,1.36,6.56,3.16,12.88,5.13,19.81,2.48-5.36,3.47-11.15,4.94-16.59,1.44-5.32,1.55-11.57,4.96-15.43,1.87,1.59,1.58,3.17,1.22,4.57-2.65,10.21-5.34,20.4-8.04,30.58-.51,1.91-1.03,3.88-2.82,4.01-2.1,.15-2.64-2.12-3.21-4.27-2.97-11.08-5.92-22.17-9-33.71Z"/>
      <path class="cls-5" d="M510.28,432.31c-.95-2.44-2.95-1.21-3.2-4.01-.31-2.8,2.06-1.78,2.86-3.29,.88-3.32-.29-7.03,.7-10.25,1.05-1.31,2.03-.92,3.12-.38,.93,3.48,0,7.15,.64,10.31,1.42,2.5,3.71,.16,5.18,2.7,.27,5.13-3.2,3.05-5.09,4.85v25.81c2.02,3.25,4.74,.02,6.71,2.1-1.2,3.79-3.25,5.49-5.95,4.97-2.66-.51-4.85-3.62-4.92-7.78-.14-8.39-.04-16.78-.04-25.02Z"/>
      <path class="cls-9" d="M38.81,429.17c-1.61,2.27-3.87,.48-6.02,2.25,0,7-.05,14.29,.02,21.58,.06,6.03,.37,6.4,4.57,6.53,.88,.03,1.78-.3,2.73,1.06-.33,4.86-3.36,4.13-5.45,4.37-2.79,.31-4.87-2.44-5.05-6.27-.21-4.55-.08-9.12-.09-13.69,0-4.3,0-8.6,0-11.58-.79-3.59-3.1-2.09-3.59-4.46-.15-3.42,2.42-2.3,3.07-3.53,1.59-3.81-1.31-9.44,2.79-11.92,1.89,4.12,.27,8.21,1.37,11.58,1.59,2.25,4.97-.93,5.66,4.07Z"/>
      <path class="cls-5" d="M482.38,426.92c4.3-2.53,3.5,2.26,4.28,4.54q6.51-6.63,8.93-2.49c-.27,1.78-1.2,2.3-2.32,2.65-5.05,1.61-6.83,6.75-6.94,13.48-.08,5.09-.03,10.19,0,15.28,0,2.2-.16,4.35-2.14,4.22-1.62-.11-1.81-2.03-1.8-3.94,0-11.18,0-22.36,0-33.74Z"/>
      <path class="cls-5" d="M111.65,472.85c-.15-1.86-.29-2.85-.3-3.84-.01-1.26,.08-2.52,.16-4.69,5.78-.57,11.53-.31,17.23-.13,.87,2.97,.75,5.39,.16,8.33-5.56,.94-11.18,.41-17.25,.32Z"/>
      <path class="cls-9" d="M556.54,447.88c-.97,1.02-1.93,1.03-3.35-.61,.26-10.77-.48-22.08,.48-33.37,.07-.84,.98-1.38,1.77-1.25,1.86,3.89,2.44,22.6,1.1,35.24Z"/>
      <path class="cls-8" d="M502.29,463.66c-1.87,.69-2.89,.16-2.9-2.26-.02-10.88-.04-21.76,.01-32.63,.01-2.29,.98-3.07,2.88-2.05v36.94Z"/>
      <path class="cls-9" d="M553.64,456.78c3.03-.97,3.39,1.47,3.36,4.22-.03,3.31-1.39,3.61-3.27,2.6-.79-2.12-.65-4.26-.09-6.82Z"/>
    </g>
  </g>
  <g>
    <path class="cls-12" d="M180.17,152.35c3.27-2.43,1.89-6.08,1.91-9.19,.12-20.58,.02-41.15,.05-61.73,.01-9.05,.23-9.29,8.47-9.33,11.07-.05,22.13-.12,33.2,.02,21.1,.26,35.43,15.9,35.62,37.73,.17,19.81-11.45,37.01-34.16,38.2-4.49,.24-9.03-.54-13.79,.58-1.59,3.69-.77,7.66-.83,11.48-.19,12.09-7.62,20.36-19,20.68-3.37,.09-6.82,.5-10.1-.91l.08-.85c2.71-.18,5.65,.7,7.79-2,2.13-21.24,.4-19.06-9.2-23.22-.02-.49-.03-.98-.03-1.47Zm30.93-29.77c6.98-.96,14.05,3.11,18.74-4.38,2.42-3.86,2.14-14.52-.64-17.35-5.47-5.58-11.92-3.28-18.38-2.5-.23,8.14-.58,15.64,.28,24.23Z"/>
    <path class="cls-2" d="M113.28,170.18c-7.84,7.34-16.54,12.92-26.89,15.28-13.46,3.07-25.42,.13-36.02-9.87,2-8.37,4-16.74,5.9-24.67,3.56-1.91,6,.45,8.64,1.19,3.01,.85,5.93,1.73,9.12,1.73,10.26,.02,14.8-4.69,15.73-15.43,1.64-18.99,1.87-38.02,1.19-57.01-.43-11.87,7.11-20.06,16.56-23.34,4.31-1.49,8.91-.83,14.66-.16v45.16c-.02,.54-.08,1.08-.18,1.62-3.98,.5-7.16,2.58-10.29,5.5,2.2,6.01,3.19,12.44,10.29,13.91l.16,.72c-.04,2.9-.07,5.79-.11,8.69-.08,.55-.13,1.1-.16,1.65-13.65,6.21-17.57,21.58-8.52,33.41,.01,.54-.01,1.08-.08,1.62Z"/>
    <path class="cls-13" d="M121.99,104.67c.1-.53,.15-1.07,.18-1.62,4.67-.99,9.34-2,14.01-2.98,8.5-1.77,16.88-.64,24.94,2.22,10.36,3.67,18.22,16.03,18.64,28.43,.25,7.2,.29,14.42,.42,21.62,0,.49,0,.98,.03,1.47-1.74,.1-3.5,.39-3.49,2.76,.02,7.31-.69,14.66,.5,22.11,1.68,.13,3.05,.24,4.41,.35l-.08,.85c-3.01,1.28-6.17,.87-9.26,.8-7.12-.16-12.28-3.84-14.74-11.11-21.77,14.68-31.92,14.7-44.27,.6,.06-.54,.09-1.08,.08-1.62,6.85-9.97,8.79-21.37,8.52-33.41,.03-.55,.08-1.1,.16-1.65,10.24-4,20.72-4.77,31.6-1.27-1.5-10.06-2.54-10.74-9.96-11.62-7.68-.91-14.42,2.5-21.54,4.2l-.16-.72c0-6.47,0-12.95,0-19.42Zm10.88,49.54c4.99,7.2,7.59,8.18,13.99,5.23,5.91-2.72,7.24-5.34,6.27-12.37-12.3-4.41-16.82-2.82-20.26,7.14Z"/>
    <path class="cls-1" d="M319.89,104.48c-1.22,1.91-.31,4.16-.84,6.18-1.35,5.19-4.88,8.04-9.53,6.34-3.39-1.24-6-1.76-9.37,.04-2.11,1.12-5.06,.74-7.08-1.56-2.11-2.41-1.63-4.74-.38-6.96,3.96-.61,2.53,5,6.67,4.47,2.77-5.28-.51-11.99,1.78-17.47,5.82-2.6,3.23,4.44,5.75,5.25,2.54,.05,2.94-2.78,4.69-3.64,2.72,2.7,5.05,5.8,8.45,7.52l-.13-.17Zm-8.58-1.46c-4.04,2.65-3.87,6.01-1.95,9.38,1.03,1.8,3.25,1.81,4.23,.03,1.81-3.3,2.46-6.79-2.28-9.42Z"/>
    <path class="cls-4" d="M431.08,158.29c-2.07-.14-2.92,2.99-5.55,2.14-2.15-1.53-.87-4.17-1.22-6.38-.3-1.89,.77-4.26-2.18-5.68-3.94,3.1,.33,9.37-3.73,12.71-4.6-3.21-.29-8.89-3.56-12.43-5.45,2.12-.61,8.94-5.04,12.7-1.86-5.62-.98-10.43-.74-15.09,4.77-2.94,9.65-.46,14.3-1.36,2.46-.48,4.03,1.81,4.26,4.55,.17,2.01,.87,2.66,2.59,1.52,.29,2.44,.58,4.87,.88,7.31Z"/>
    <path class="cls-4" d="M357.41,147.88c-5.6,3.58-1.37,9.57-5.82,13.62-1.58-5.73-.89-10.53-.53-15.48,5.01-2.51,10.14-.58,15.06-1.04,3.96-.37,5.56,3.72,6.02,7.49,.48,3.97-2.56,8.17-5.96,8.68-4.03,.61-6.57-1.67-7.81-5.4-.71-2.12-.59-4.56-.96-7.87Zm9.26,.53c-4.11-.4-5.56,1.78-5.13,5.25,.37,2.98,1.99,4.87,5.57,3.41,1.03-2.6,1.65-5.33-.44-8.67Z"/>
    <path class="cls-7" d="M505.82,102.84c-1.05,0-2.11,.01-3.16,.02-.01-.62-.02-1.23-.03-1.85,5.93-2.18,11.75-3.53,16.7,2.33,6.32-5.77,7.97-5.84,12.25-.48-2.69,.73-.76,4.35-2.97,5.38-2.63-.45-3.81,1.11-4.34,3.56-.36,.05-.72,.09-1.08,.14-.05-1.57-.1-3.14-.15-4.71,.49-.65,.98-1.29,1.7-2.24-2.54,.1-6.78-3.36-4.93,3.41l.22-.12c-2.71,.13-1.66,2.4-1.87,3.88-.24,1.67,.46,3.6-1.8,5.1-5.36-3.29-.51-9.78-3.5-13.76-2.26-.47-2.17,2.06-3.25,3.15-.24-2.42-1.01-4.25-3.78-3.81Z"/>
    <path class="cls-1" d="M420.5,95.7c9.43-1.92,12.73-1.02,13.56,3.69,.9,5.04-1.26,7.15-9.01,8.86-2.66,2.3,.67,6.76-2.8,8.78-3.2-3.73-3.67-9.58-1.76-21.32Zm4.51,8.22c2.59,.44,4.8-.34,4.42-3.44-.28-2.24-2.34-3.08-4.62-2.14-1.43,1.9-1.4,3.73,.2,5.58Z"/>
    <path class="cls-3" d="M358.68,117.78c-4.13-4.42-.02-10.3-3.87-14.19-6.78,2.3-.68,10.13-5.24,13.81-3.4-5.13-.25-10.7-2.16-16.12,4.19-.85,7.61-1.53,11.46-.58,1.42,5.76,1.76,11.06-.19,17.09Z"/>
    <path class="cls-1" d="M470.04,119.13c-2.25,6.73-6.85,2.59-10.99,3.33-.37-3.8,2.12-7.41-1.08-10.2-1.17-1.02-1.94-.66-2.94-.16l-.53-.53c.05-2.68,.1-5.35,.16-8.03,1.35,.41,2.57,.61,3.6-.87,3.39-4.89,7.57-3.82,11.85-1.64-1.23,.62-2.46,1.24-3.68,1.87q-5.82,1.77-3.17,9.97c1.55,.99,2.56-.53,3.81-.94,1.64,1.07,1.82,2.25,.22,3.55-2.01,.56-3.98,1.2-5.33,3.1,1.79,1.62,3.44,1.05,5.08,.64,1-.03,2.01-.05,3.01-.08Z"/>
    <path class="cls-1" d="M439.47,100.99c4.79-.62,9.79-4.42,14.15,1.12-.7,.53-1.41,1.06-2.11,1.59-6.33-.05-6.67,.77-3.94,9.39,1.85,1.01,3.17-.1,4.48-1.28,.82-.08,1.64-.16,2.45-.24l.53,.53c-4.06,6.34-5.78,6.88-11.11,2.9-1.42-1.06-2.35-2.64-4.08-.75-1.14-4.38-.2-8.84-.37-13.25Z"/>
    <path class="cls-4" d="M338.77,150.06c-1.11-.13-2.22-.26-3.88-.46-1.61,3.44-3.31,7.08-5.28,11.3-4.67-4.33-6.14-9.35-5.76-15.75,4.17,1.43,2.48,6.44,5.57,7.96,1.56-2.36,.78-5.98,3.58-7.69,1.36-.25,1.95,.71,2.69,2.51,2.7-.74,4.83-5.33,8.34-2.47l-.05,2.5c-1.95,.09-4.05-.24-5.21,2.09Z"/>
    <path class="cls-1" d="M485.71,100.82c2.19-2.09,4.43-2.7,6.76-.23-.15,2.72-.31,5.45-.46,8.17-2.56-.89-4.73-.63-4.52,2.9,.23,3.78,2.43,2.06,4.16,1.28,.63,1.32,1.5,2.31,2.95,2.54-2.74,2.48-6.04,2.22-9.02,1.28-3.12-.99-3.46-5.6-1.12-9.05,.96-1.41,4.27-1.22,2.69-4.39-.82-.61-1.54-1.29-1.44-2.5Z"/>
    <path class="cls-1" d="M365.97,102.65c-.51-3.22,1.69-3.09,3.44-2.82,2.56,.4,4.4,2.06,5.29,4.76,.15,6.72-6.28,1.76-8.23,5.54,.31,6.3,4.33,2.81,7.09,2.62,.06,3.64-2.04,4.64-4.97,4.59-2.91-.05-5.33-1.57-5.53-4.55-.23-3.51-3.16-8.36,2.81-10.05q1.86,3.48,4.8,1.98c-.71-2.92-3.23-1.15-4.71-2.07Z"/>
    <path class="cls-3" d="M402.06,106.94c.58-.58,1.15-1.16,1.67-1.68-.98-2.59-3.28-.02-4.4-1.65-.26-3.15,2.14-3.85,9.11-2.46,2.23,4.7,.43,9.87,1.33,14.37-1.81,2-2.94,.76-4.12,.1-.01-.47-.07-.94-.17-1.41,1.76-5.89,1.68-6.03-3.46-5.59,.14-.55,.16-1.11,.05-1.67Z"/>
    <path class="cls-1" d="M537.96,117.25c-4.02-5.28-2.24-10.93-2.66-16.46,2.71-1.67,5.38-1.51,9.61-.86-5.67,4.8-6.43,10.84-6.95,17.32Z"/>
    <path class="cls-7" d="M386.6,160.66c-1.92,.32-3.87,.83-5.95-1.16-.28-6.42-.99-13.22,.94-21.52,3.82,4.97,2.2,8.97,2.55,12.61,.28,2.85-.78,6.14,2.63,7.77l-.17,2.3Z"/>
    <path class="cls-7" d="M312.9,148.37c1.16,3.14,2.33,6.28,3.49,9.42-.69,.61-1.37,1.23-2.06,1.84-5.26-6.76-6.61-6.68-13.66,1.32-1.1-4.44,1.09-7.51,2.42-10.76,.97,0,1.95,0,2.92,0,2.95,3.44,3.93,1.87,4.07-1.82,.94,0,1.88,0,2.81,0Z"/>
    <path class="cls-1" d="M391.69,158.99c2.72-1.43,2.27-5.59,5.2-6.83,1.6-.14,3.3,.04,4.77-.5,2.1-.77,2.03-2.28,.4-3.76,.62-.56,1.25-1.12,1.87-1.68,4.67,3.59,1.35,8.75,2.53,12.88-5.17,3.81-10,.07-14.87,.03v.02s.09-.16,.09-.16Zm12.16-4.41c-3.5-1.49-5.47-.89-6.79,2.42,3.28,3.57,4.97,1.73,6.79-2.42Z"/>
    <path class="cls-7" d="M343.98,147.97l.05-2.5c2.97,.54,4.23,2.63,4.3,5.63,.08,2.91,.02,5.82,.02,9.52-4.33-.96-8.63,2.88-11.86-2.04-2.03-3.09,.31-4.84,2.33-6.52,1.36-.13,2.79-.02,4.06-.44,1.71-.57,3.04-1.63,1.11-3.63Zm-5.23,9.01c4.22,3.43,5.43,1.09,6.38-2.47-2.69-1.52-4.46-.64-6.38,2.47Z"/>
    <path class="cls-7" d="M328.45,106.35c1.94-6.4,3.14-7.28,10.1-6.75,4.67,.35,6.93,3.19,6.75,8.2-2.69,1.24-5.48,.5-8.23,.46-.11-.55-.13-1.1-.08-1.66,1.4-.41,3.22,.68,4.25-1.4-1.32-3.16-2.95-2.51-4.72-.42-2.52-.18-2.71,1.8-3.02,3.69-1.04-.02-2.09-.04-3.13-.06-.33-.64-.34-1.62-1.4-1.47l-.52-.59Z"/>
    <path class="cls-7" d="M431.08,158.29c-.29-2.44-.58-4.87-.88-7.31,.06-1.43,.53-2.66,1.58-3.6,.34,.4,.69,.78,1.07,1.14-.13,4.58,2.94,3.62,5.1,2.9,1.96-.65,.91-2.21-.13-3.3,.04-.76,.08-1.52,.12-2.28,3.1,1.02,4.75,3.04,4.13,6.67-2.55,2.94-6.18,.06-8.86,2.16,1.09,6.59,5.13,.82,7.65,1.67-3.12,6.05-3.58,6.13-9.78,1.96Z"/>
    <path class="cls-1" d="M376.59,104.59c3.31-5.4,6.34-6.46,10.28-3.41,1.38,1.07,1.2,2.42-.32,3.41-1.91-.48-3.55-3.37-5.88-.68,1.37,2.46,3.7,2.32,5.88,2.55,2.32,1.94,2.53,4.47,1.77,7.27-1.36-.06-3.02-.13-3.19-1.85-.36-3.71-2.72-3.71-5.23-3.68-.53,.04-1.04-.04-1.53-.24-.59-1.13-1.18-2.25-1.77-3.38Z"/>
    <path class="cls-4" d="M314.34,159.64c.69-.61,1.37-1.23,2.06-1.84,3.41-2.39,1.06-6,1.63-9,.55-2.94-.83-6.3,2.08-10.18,2.47,7.72,.98,14.37,1.32,20.96-2.57,1.62-4.81,1.85-7.08,.06Z"/>
    <path class="cls-7" d="M379.9,108.2c2.51-.03,4.87-.04,5.23,3.68,.17,1.72,1.83,1.79,3.19,1.85-5.15,5.61-8.12,5.22-11.65-1.53l-.23-.1c2.41-.04,4.33-.56,3.45-3.9Z"/>
    <path class="cls-7" d="M485.71,100.82c-.1,1.21,.62,1.89,1.44,2.5-3.01,2.04-7.82-1.74-9.84,3.48-.53-1.66-.09-4.19-2.96-3.76-.66-2.01-.18-3.16,1.96-3.57,3.31-.64,6.31,.56,9.4,1.35Z"/>
    <path class="cls-1" d="M402.06,106.94c.11,.56,.09,1.12-.05,1.67,.51,2.32-1.04,6.09,3.46,5.59,.1,.46,.16,.93,.17,1.41-2.92,2.8-5.95,2.57-7.43-1.15-1.36-3.41-1.01-7.12,3.86-7.53Z"/>
    <path class="cls-4" d="M444.16,139.66c3.84-.31,8.11-1.58,6.47,5.19-2.11,1.74-4.25,1.05-6.36,.64-.74-1.73-1.28-3.37-.1-5.83Z"/>
    <path class="cls-4" d="M298.31,140.04c.98,2.17,1.26,3.81,.23,5.69-2.23,.63-4.55,1.37-6.89-.66-.52-5.37,2.68-5.48,6.66-5.04Z"/>
    <path class="cls-7" d="M330.7,111.96c-.99,1.98-.58,5.28-3.79,5.2-3.13-.08-3.13-2.9-3.49-5.26,2.93-1.63,1.26-4.47,1.56-6.78,1.07,.67,1.92,2.04,3.46,1.24l.52,.59c-.24,1.78-1.12,3.7,.99,4.94l.75,.08Z"/>
    <path class="cls-4" d="M306.02,150.2c-.97,0-1.95,0-2.92,0,1.45-4.88,2.89-9.75,4.34-14.63,.44-.05,.88-.09,1.33-.14,.63,2.78,1.25,5.55,1.88,8.33-.46,.5-.92,1.01-1.39,1.51-2.58,.52-2.5,3.02-3.24,4.92Z"/>
    <path class="cls-3" d="M470.04,119.13c-1,.03-2.01,.05-3.01,.08,.09-1.24,.17-2.49,.26-3.73,1.6-1.3,1.42-2.47-.22-3.55l.51-3.62c.19-.18,.56-.39,.54-.52-.08-.47-.29-.92-.45-1.38-.41-1.17-.83-2.34-1.24-3.51,1.23-.62,2.46-1.24,3.68-1.87,.08,1.11,.17,2.21,.25,3.32-.5,2.6-.5,5.2-.02,7.8,.2,2.34,.48,4.68-.3,6.98Z"/>
    <path class="cls-1" d="M324.99,105.11c-.3,2.32,1.37,5.15-1.56,6.78-1.97-2.04-.24-6.09-3.53-7.41l.13,.17c.65-1.42-.85-4.06,1.45-4.34,3.02-.37,3.13,2.51,3.52,4.79Z"/>
    <path class="cls-3" d="M505.82,102.84c2.77-.44,3.54,1.39,3.78,3.81-.05,2.96-.1,5.92-.15,8.89l-2.72-.25c-.87-4.1,.41-8.38-.91-12.44Z"/>
    <path class="cls-3" d="M528.6,108.24c2.21-1.03,.28-4.65,2.97-5.38,.1,4.22,.2,8.45,.3,12.67-.79,.23-1.59,.46-2.38,.69-1.1-.29-2.17-.38-3.11,.49,.14-.78,.28-1.56,.42-2.34,2.31-1.48,2.33-3.71,1.79-6.13Z"/>
    <path class="cls-4" d="M437.94,145.84c-.04,.76-.08,1.52-.12,2.28-1.18-.04-2.37-.07-3.55-.11-.21-1-.9-1.39-1.75-1.58,1.39-2.25,1.12-5.65,4.04-6.98,2.16,1.88,.13,4.52,1.37,6.39Z"/>
    <path class="cls-3" d="M502.62,101.01c.01,.62,.02,1.23,.03,1.85-.31,.58-.62,1.15-.93,1.73-1.97,3.87-.41,8.09-1.05,12.09l-.6,.41-.64-.34c-.5-3.64,.38-7.4-.82-10.98-.17-3.02-.82-6.51,4-4.77Z"/>
    <path class="cls-3" d="M474.34,103.04c2.87-.43,2.42,2.1,2.96,3.76-.07,2.93-.13,5.86-.2,8.78-.59-.02-1.18-.04-1.77-.06-.5-2.46,.76-5.22-1.08-7.46,.03-1.68,.07-3.35,.1-5.03Z"/>
    <path class="cls-3" d="M337.06,108.26c-.41,1.83-.53,3.65,.09,5.45-.84,.23-1.68,.47-2.51,.7-.33-.24-.67-.46-1.02-.67-.04-1.76-.08-3.51-.13-5.27,.3-1.88,.49-3.87,3.02-3.69l.47,1.82c-.05,.56-.02,1.11,.08,1.66Z"/>
    <path class="cls-7" d="M334.63,114.41c.84-.23,1.68-.47,2.51-.7,2.3-.27,4.59-.54,6.89-.82-2.66,5.83-4.4,6.11-9.4,1.52Z"/>
    <path class="cls-4" d="M403.94,146.22c-.62,.56-1.25,1.12-1.87,1.68-1.94,.19-4.09-.17-5.26,2.15-1.81-.54-2.32-1.88-1.03-3.2,2.45-2.49,5.24-3.49,8.16-.64Z"/>
    <path class="cls-3" d="M439.47,100.99c.17,4.42-.77,8.87,.37,13.25,.18,.5,.13,.96-.17,1.4-.78-.06-1.56-.11-2.35-.17-.08-3.88-.18-7.76-.22-11.64-.02-1.64,.52-2.89,2.36-2.84Z"/>
    <path class="cls-3" d="M523.03,107.23c.05,1.57,.1,3.14,.15,4.71,0,1.6,0,3.2,0,4.8-3.74-1.68-1.95-5.7-3.16-8.45l-.22,.12c1.4,.62,2.18-.68,3.23-1.17Z"/>
    <path class="cls-3" d="M494.6,115.48c-1.45-.24-2.32-1.23-2.95-2.54,.12-1.39,.24-2.78,.36-4.18,.15-2.72,.31-5.45,.46-8.17,4.3,4.38,1.33,9.94,2.13,14.89Z"/>
    <path class="cls-3" d="M454.5,111.57c-.82,.08-1.64,.16-2.45,.24,.16-1.2,.31-2.41,.47-3.61,.65-.8,.63-1.61,.06-2.44-.36-.69-.71-1.37-1.07-2.06,.7-.53,1.41-1.06,2.11-1.59,.34,.48,.69,.96,1.03,1.44-.05,2.68-.1,5.35-.16,8.03Z"/>
    <path class="cls-7" d="M500.68,116.69c.64-4-.93-8.22,1.05-12.09-.02,4.06,1.85,8.31-1.05,12.09Z"/>
    <path class="cls-7" d="M498.62,105.78c1.2,3.58,.32,7.34,.82,10.98-3.26-3.41-1.58-7.23-.82-10.98Z"/>
    <path class="cls-4" d="M523.18,116.74c0-1.6,0-3.2,0-4.8,.36-.05,.72-.09,1.08-.14,.42,1.34,1.41,2.03,2.55,2.57-.14,.78-.28,1.56-.42,2.34-1.06,1.32-2.13,1.05-3.21,.02Z"/>
    <path class="cls-4" d="M474.25,108.06c1.85,2.24,.59,5,1.08,7.46-.02,.51,0,1.02,.05,1.52-3.23-2.59-1.48-5.89-1.13-8.98Z"/>
    <path class="cls-1" d="M470.34,112.15c-.48-2.6-.48-5.2,.02-7.8,1.12,2.6,1.15,5.21-.02,7.8Z"/>
    <path class="cls-4" d="M312.9,148.37c-.94,0-1.88,0-2.81,0-.28-1.03-.55-2.06-.83-3.1,.46-.5,.92-1.01,1.39-1.51,1.57,1.08,2.4,2.57,2.26,4.61Z"/>
    <path class="cls-1" d="M386.6,160.66l.17-2.3c.78,.15,1.56,.3,2.34,.44l2.5,.35v-.02c-.92,3.29-3.26,1.32-5.01,1.54Z"/>
    <path class="cls-1" d="M437.33,115.47c.78,.06,1.56,.11,2.35,.17,.05,1.1-.5,1.67-1.47,1.52-.82-.13-1.63-.51-.88-1.69Z"/>
    <path class="cls-4" d="M529.49,116.22c.79-.23,1.59-.46,2.38-.69,.67,.28,.92,.91,.37,1.31-1.01,.74-2.05,.68-2.75-.62Z"/>
    <path class="cls-7" d="M506.73,115.29l2.72,.25c-.07,1.29-.72,1.86-1.88,1.51-.76-.23-1.09-.88-.84-1.76Z"/>
    <path class="cls-7" d="M432.52,146.43c.85,.19,1.54,.58,1.75,1.58-.44,.28-.91,.45-1.42,.5-.38-.36-.73-.73-1.07-1.14,.18-.38,.42-.7,.74-.95Z"/>
    <path class="cls-7" d="M475.38,117.05c-.05-.51-.07-1.01-.05-1.52,.59,.02,1.18,.04,1.77,.06,.03,1.3-.59,1.73-1.73,1.46Z"/>
    <path class="cls-7" d="M391.61,159.15l-2.5-.35c.93-1.03,1.82-1.45,2.58,.19l-.08,.16Z"/>
    <path class="cls-6" d="M181.62,179.03c-1.36-.11-2.73-.22-4.41-.35-1.18-7.45-.48-14.8-.5-22.11,0-2.36,1.75-2.66,3.49-2.76,9.61,4.16,11.33,1.98,9.2,23.22-2.14,2.69-5.08,1.82-7.79,2Z"/>
    <path class="cls-10" d="M121.88,135.15c.27,12.04-1.68,23.44-8.52,33.41-9.04-11.83-5.12-27.2,8.52-33.41Z"/>
    <path class="cls-10" d="M121.99,104.67c0,6.47,0,12.95,0,19.42-7.09-1.48-8.08-7.91-10.29-13.91,3.13-2.93,6.31-5.01,10.29-5.5Z"/>
    <path class="cls-3" d="M330.36,108.41c-.14,1.16-.27,2.31-.41,3.47-2.11-1.24-1.23-3.16-.99-4.94,1.06-.15,1.07,.83,1.4,1.47Z"/>
    <path class="cls-1" d="M467.58,108.31c.03-.63,.06-1.27,.09-1.9,.16,.46,.37,.91,.45,1.38,.02,.14-.35,.35-.54,.52Z"/>
    <path class="cls-1" d="M452.52,108.2c-.64-.83-.5-1.64,.06-2.44,.57,.83,.59,1.65-.06,2.44Z"/>
  </g>
</svg>