<svg xmlns="http://www.w3.org/2000/svg" xmlns:xlink="http://www.w3.org/1999/xlink" width="500" zoomAndPan="magnify" viewBox="0 0 375 374.999991" height="500" preserveAspectRatio="xMidYMid meet" version="1.0"><defs><g/><clipPath id="e4b89802c2"><path d="M 2.726562 0 L 372.476562 0 L 372.476562 375 L 2.726562 375 Z M 2.726562 0 " clip-rule="nonzero"/></clipPath></defs><path fill="#000000" d="M 371.847656 187.597656 C 371.847656 190.660156 371.773438 193.722656 371.625 196.78125 C 371.476562 199.84375 371.253906 202.898438 370.960938 205.945312 C 370.664062 208.996094 370.296875 212.035156 369.851562 215.066406 C 369.410156 218.09375 368.894531 221.113281 368.304688 224.117188 C 367.71875 227.121094 367.058594 230.109375 366.324219 233.082031 C 365.589844 236.054688 364.785156 239.007812 363.910156 241.9375 C 363.035156 244.871094 362.089844 247.777344 361.074219 250.660156 C 360.058594 253.546875 358.972656 256.402344 357.816406 259.234375 C 356.664062 262.066406 355.441406 264.863281 354.152344 267.632812 C 352.863281 270.402344 351.503906 273.140625 350.082031 275.839844 C 348.660156 278.542969 347.175781 281.207031 345.625 283.835938 C 344.074219 286.464844 342.460938 289.050781 340.785156 291.597656 C 339.109375 294.144531 337.371094 296.648438 335.574219 299.109375 C 333.777344 301.570312 331.921875 303.984375 330.011719 306.355469 C 328.097656 308.722656 326.125 311.039062 324.101562 313.3125 C 322.074219 315.582031 319.996094 317.800781 317.863281 319.964844 C 315.730469 322.132812 313.546875 324.242188 311.3125 326.300781 C 309.074219 328.359375 306.792969 330.359375 304.460938 332.300781 C 302.128906 334.246094 299.75 336.128906 297.328125 337.953125 C 294.90625 339.78125 292.441406 341.542969 289.933594 343.246094 C 287.425781 344.949219 284.875 346.585938 282.289062 348.160156 C 279.703125 349.734375 277.078125 351.246094 274.417969 352.691406 C 271.757812 354.132812 269.0625 355.511719 266.335938 356.820312 C 263.609375 358.128906 260.855469 359.371094 258.066406 360.542969 C 255.28125 361.714844 252.464844 362.820312 249.625 363.851562 C 246.785156 364.882812 243.921875 365.84375 241.035156 366.734375 C 238.148438 367.621094 235.242188 368.4375 232.316406 369.183594 C 229.390625 369.929688 226.449219 370.597656 223.492188 371.195312 C 220.53125 371.792969 217.5625 372.316406 214.578125 372.769531 C 211.59375 373.21875 208.601562 373.59375 205.597656 373.890625 C 202.597656 374.191406 199.589844 374.417969 196.578125 374.566406 C 193.5625 374.71875 190.550781 374.792969 187.53125 374.792969 C 184.515625 374.792969 181.5 374.71875 178.488281 374.566406 C 175.476562 374.417969 172.46875 374.191406 169.464844 373.890625 C 166.464844 373.59375 163.472656 373.21875 160.488281 372.769531 C 157.503906 372.316406 154.53125 371.792969 151.574219 371.195312 C 148.617188 370.597656 145.671875 369.929688 142.746094 369.183594 C 139.820312 368.4375 136.914062 367.621094 134.027344 366.734375 C 131.140625 365.84375 128.277344 364.882812 125.4375 363.851562 C 122.597656 362.820312 119.785156 361.714844 117 360.542969 C 114.210938 359.371094 111.453125 358.128906 108.726562 356.820312 C 106 355.511719 103.308594 354.132812 100.648438 352.691406 C 97.988281 351.246094 95.363281 349.734375 92.777344 348.160156 C 90.1875 346.585938 87.640625 344.949219 85.132812 343.246094 C 82.625 341.542969 80.160156 339.78125 77.738281 337.953125 C 75.3125 336.128906 72.9375 334.246094 70.605469 332.300781 C 68.273438 330.359375 65.988281 328.359375 63.753906 326.300781 C 61.519531 324.242188 59.335938 322.132812 57.203125 319.964844 C 55.070312 317.800781 52.988281 315.582031 50.964844 313.3125 C 48.9375 311.039062 46.96875 308.722656 45.054688 306.355469 C 43.140625 303.984375 41.285156 301.570312 39.488281 299.109375 C 37.691406 296.648438 35.957031 294.144531 34.28125 291.597656 C 32.605469 289.050781 30.992188 286.464844 29.441406 283.835938 C 27.890625 281.207031 26.402344 278.542969 24.980469 275.839844 C 23.558594 273.140625 22.203125 270.402344 20.914062 267.632812 C 19.625 264.863281 18.402344 262.066406 17.246094 259.234375 C 16.09375 256.402344 15.007812 253.546875 13.992188 250.660156 C 12.976562 247.777344 12.03125 244.871094 11.152344 241.9375 C 10.277344 239.007812 9.472656 236.054688 8.742188 233.082031 C 8.007812 230.109375 7.347656 227.121094 6.757812 224.117188 C 6.171875 221.113281 5.65625 218.09375 5.210938 215.066406 C 4.769531 212.035156 4.402344 208.996094 4.105469 205.945312 C 3.808594 202.898438 3.585938 199.84375 3.441406 196.78125 C 3.292969 193.722656 3.21875 190.660156 3.21875 187.597656 C 3.21875 184.535156 3.292969 181.472656 3.441406 178.414062 C 3.585938 175.351562 3.808594 172.296875 4.105469 169.25 C 4.402344 166.199219 4.769531 163.160156 5.210938 160.128906 C 5.65625 157.101562 6.171875 154.082031 6.757812 151.078125 C 7.347656 148.074219 8.007812 145.085938 8.742188 142.113281 C 9.472656 139.140625 10.277344 136.1875 11.152344 133.257812 C 12.03125 130.324219 12.976562 127.417969 13.992188 124.53125 C 15.007812 121.648438 16.09375 118.789062 17.246094 115.960938 C 18.402344 113.128906 19.625 110.332031 20.914062 107.5625 C 22.203125 104.792969 23.558594 102.054688 24.980469 99.355469 C 26.402344 96.652344 27.890625 93.988281 29.441406 91.359375 C 30.992188 88.730469 32.605469 86.144531 34.28125 83.597656 C 35.957031 81.050781 37.691406 78.546875 39.488281 76.085938 C 41.285156 73.625 43.140625 71.210938 45.054688 68.839844 C 46.96875 66.472656 48.9375 64.152344 50.964844 61.882812 C 52.988281 59.613281 55.070312 57.394531 57.203125 55.230469 C 59.335938 53.0625 61.519531 50.953125 63.753906 48.894531 C 65.988281 46.835938 68.273438 44.835938 70.605469 42.894531 C 72.9375 40.949219 75.3125 39.066406 77.738281 37.238281 C 80.160156 35.414062 82.625 33.652344 85.132812 31.949219 C 87.640625 30.246094 90.1875 28.609375 92.777344 27.035156 C 95.363281 25.457031 97.988281 23.949219 100.648438 22.503906 C 103.308594 21.0625 106 19.683594 108.726562 18.375 C 111.453125 17.0625 114.210938 15.824219 117 14.652344 C 119.785156 13.476562 122.597656 12.375 125.4375 11.34375 C 128.277344 10.3125 131.140625 9.351562 134.027344 8.460938 C 136.914062 7.574219 139.820312 6.753906 142.746094 6.011719 C 145.671875 5.265625 148.617188 4.597656 151.574219 4 C 154.53125 3.402344 157.503906 2.875 160.488281 2.425781 C 163.472656 1.976562 166.464844 1.601562 169.464844 1.300781 C 172.46875 1.003906 175.476562 0.777344 178.488281 0.625 C 181.5 0.476562 184.515625 0.402344 187.53125 0.402344 C 190.550781 0.402344 193.5625 0.476562 196.578125 0.625 C 199.589844 0.777344 202.597656 1.003906 205.597656 1.300781 C 208.601562 1.601562 211.59375 1.976562 214.578125 2.425781 C 217.5625 2.875 220.53125 3.402344 223.492188 4 C 226.449219 4.597656 229.390625 5.265625 232.316406 6.011719 C 235.242188 6.753906 238.148438 7.574219 241.035156 8.460938 C 243.921875 9.351562 246.785156 10.3125 249.625 11.34375 C 252.464844 12.375 255.28125 13.476562 258.066406 14.652344 C 260.855469 15.824219 263.609375 17.0625 266.335938 18.375 C 269.0625 19.683594 271.757812 21.0625 274.417969 22.503906 C 277.078125 23.949219 279.703125 25.457031 282.289062 27.035156 C 284.875 28.609375 287.425781 30.246094 289.933594 31.949219 C 292.441406 33.652344 294.90625 35.414062 297.328125 37.238281 C 299.75 39.066406 302.128906 40.949219 304.460938 42.894531 C 306.792969 44.835938 309.074219 46.835938 311.3125 48.894531 C 313.546875 50.953125 315.730469 53.0625 317.863281 55.230469 C 319.996094 57.394531 322.074219 59.613281 324.101562 61.882812 C 326.125 64.152344 328.097656 66.472656 330.011719 68.839844 C 331.921875 71.210938 333.777344 73.625 335.574219 76.085938 C 337.371094 78.546875 339.109375 81.050781 340.785156 83.597656 C 342.460938 86.144531 344.074219 88.730469 345.625 91.359375 C 347.175781 93.988281 348.660156 96.652344 350.082031 99.355469 C 351.503906 102.054688 352.863281 104.792969 354.152344 107.5625 C 355.441406 110.332031 356.664062 113.128906 357.816406 115.960938 C 358.972656 118.789062 360.058594 121.648438 361.074219 124.53125 C 362.089844 127.417969 363.035156 130.324219 363.910156 133.257812 C 364.785156 136.1875 365.589844 139.140625 366.324219 142.113281 C 367.058594 145.085938 367.71875 148.074219 368.304688 151.078125 C 368.894531 154.082031 369.410156 157.101562 369.851562 160.128906 C 370.296875 163.160156 370.664062 166.199219 370.960938 169.25 C 371.253906 172.296875 371.476562 175.351562 371.625 178.414062 C 371.773438 181.472656 371.847656 184.535156 371.847656 187.597656 Z M 371.847656 187.597656 " fill-opacity="1" fill-rule="nonzero"/><g clip-path="url(#e4b89802c2)"><path stroke-linecap="butt" transform="matrix(2.787622, 0, 0, 2.786032, -17.706143, -59.342487)" fill="none" stroke-linejoin="miter" d="M 139.744104 88.635059 C 139.744104 89.734292 139.71748 90.833526 139.664231 91.931357 C 139.610983 93.030591 139.531109 94.12702 139.426013 95.220645 C 139.319515 96.315672 139.187795 97.406493 139.028048 98.49451 C 138.869703 99.581125 138.684734 100.664935 138.47314 101.743137 C 138.262948 102.82134 138.026131 103.893933 137.762689 104.960919 C 137.499248 106.027904 137.210583 107.08788 136.896696 108.139442 C 136.582808 109.192407 136.243698 110.235557 135.879364 111.270295 C 135.51503 112.306434 135.125473 113.331357 134.710693 114.347868 C 134.297315 115.364378 133.858713 116.36827 133.396289 117.362347 C 132.933865 118.356425 132.446219 119.339285 131.936151 120.308125 C 131.426084 121.278367 130.893596 122.234588 130.337287 123.17819 C 129.780977 124.121792 129.202247 125.049971 128.601096 125.96413 C 127.999945 126.878288 127.376374 127.777024 126.731784 128.660336 C 126.087193 129.543649 125.421583 130.410136 124.736356 131.261201 C 124.049726 132.110864 123.342078 132.942299 122.616213 133.758312 C 121.888947 134.572922 121.143464 135.369306 120.378363 136.14606 C 119.613262 136.924216 118.829945 137.681341 118.02841 138.420239 C 117.225475 139.159137 116.407125 139.877004 115.570559 140.57384 C 114.733992 141.272077 113.88061 141.947881 113.011814 142.602654 C 112.143018 143.25883 111.258808 143.891169 110.359184 144.502478 C 109.45956 145.113786 108.544522 145.701259 107.616872 146.266299 C 106.689222 146.831338 105.747559 147.373945 104.793285 147.892715 C 103.839011 148.410084 102.872125 148.90502 101.894029 149.374718 C 100.915933 149.844416 99.928028 150.290278 98.927511 150.710903 C 97.928396 151.131528 96.918071 151.528318 95.899337 151.898468 C 94.880604 152.268618 93.853463 152.613531 92.817914 152.933206 C 91.782366 153.251479 90.739811 153.544514 89.690249 153.812312 C 88.640687 154.08011 87.585521 154.319866 86.524749 154.534385 C 85.462576 154.748904 84.3976 154.936783 83.327019 155.099425 C 82.256439 155.260664 81.183055 155.395264 80.105468 155.501823 C 79.029282 155.609783 77.950294 155.691104 76.869904 155.744383 C 75.788113 155.799064 74.707723 155.825704 73.624531 155.825704 C 72.54274 155.825704 71.460949 155.799064 70.380559 155.744383 C 69.300169 155.691104 68.221181 155.609783 67.143593 155.501823 C 66.067408 155.395264 64.994024 155.260664 63.923443 155.099425 C 62.852863 154.936783 61.786486 154.748904 60.725714 154.534385 C 59.664942 154.319866 58.608374 154.08011 57.558813 153.812312 C 56.509251 153.544514 55.466696 153.251479 54.431147 152.933206 C 53.395599 152.613531 52.368458 152.268618 51.349724 151.898468 C 50.330991 151.528318 49.322067 151.131528 48.322951 150.710903 C 47.322435 150.290278 46.333129 149.844416 45.355032 149.374718 C 44.376936 148.90502 43.411452 148.410084 42.457178 147.892715 C 41.502903 147.373945 40.561241 146.831338 39.633591 146.266299 C 38.70454 145.701259 37.790903 145.113786 36.891279 144.502478 C 35.991654 143.891169 35.107444 143.25883 34.238649 142.602654 C 33.368451 141.947881 32.516471 141.272077 31.679904 140.57384 C 30.843338 139.877004 30.023587 139.159137 29.222053 138.420239 C 28.420518 137.681341 27.637201 136.924216 26.8721 136.14606 C 26.106999 135.369306 25.360115 134.572922 24.63425 133.758312 C 23.906983 132.942299 23.200736 132.110864 22.514107 131.261201 C 21.827478 130.410136 21.161869 129.543649 20.517278 128.660336 C 19.872688 127.777024 19.250518 126.878288 18.649367 125.96413 C 18.048216 125.049971 17.469486 124.121792 16.913176 123.17819 C 16.356867 122.234588 15.822977 121.278367 15.31291 120.308125 C 14.802843 119.339285 14.316597 118.356425 13.854174 117.362347 C 13.39175 116.36827 12.953148 115.364378 12.538368 114.347868 C 12.12499 113.331357 11.735433 112.306434 11.371099 111.270295 C 11.006765 110.235557 10.667655 109.192407 10.352366 108.139442 C 10.038478 107.08788 9.749814 106.027904 9.487774 104.960919 C 9.224332 103.893933 8.987515 102.82134 8.775922 101.743137 C 8.565729 100.664935 8.38076 99.581125 8.221013 98.49451 C 8.062668 97.406493 7.930947 96.315672 7.82445 95.220645 C 7.717952 94.12702 7.638079 93.030591 7.586232 91.931357 C 7.532983 90.833526 7.506358 89.734292 7.506358 88.635059 C 7.506358 87.535825 7.532983 86.436592 7.586232 85.338761 C 7.638079 84.239527 7.717952 83.143098 7.82445 82.049473 C 7.930947 80.954445 8.062668 79.863624 8.221013 78.775608 C 8.38076 77.688993 8.565729 76.605182 8.775922 75.52698 C 8.987515 74.448778 9.224332 73.376184 9.487774 72.309199 C 9.749814 71.242213 10.038478 70.182238 10.352366 69.130675 C 10.667655 68.077711 11.006765 67.034561 11.371099 65.998421 C 11.735433 64.963683 12.12499 63.937358 12.538368 62.92225 C 12.953148 61.905739 13.39175 60.901847 13.854174 59.90777 C 14.316597 58.913693 14.802843 57.930832 15.31291 56.961993 C 15.822977 55.991751 16.356867 55.03553 16.913176 54.091928 C 17.469486 53.148326 18.048216 52.220146 18.649367 51.305988 C 19.250518 50.39183 19.872688 49.493094 20.517278 48.609781 C 21.161869 47.726469 21.827478 46.859981 22.514107 46.008917 C 23.200736 45.159254 23.906983 44.326416 24.63425 43.511806 C 25.360115 42.697195 26.106999 41.900812 26.8721 41.124058 C 27.637201 40.345901 28.420518 39.588776 29.222053 38.849878 C 30.023587 38.11098 30.843338 37.393113 31.679904 36.696278 C 32.516471 35.99804 33.368451 35.322236 34.238649 34.666061 C 35.107444 34.011288 35.991654 33.378948 36.891279 32.76764 C 37.790903 32.156332 38.70454 31.568859 39.633591 31.003819 C 40.561241 30.437377 41.502903 29.896173 42.457178 29.377402 C 43.411452 28.860033 44.376936 28.365098 45.355032 27.8954 C 46.333129 27.4243 47.322435 26.979839 48.322951 26.559214 C 49.322067 26.137187 50.330991 25.7418 51.349724 25.37165 C 52.368458 25.0015 53.395599 24.656587 54.431147 24.336912 C 55.466696 24.018639 56.509251 23.724202 57.558813 23.457806 C 58.608374 23.190008 59.664942 22.950251 60.725714 22.735733 C 61.786486 22.521214 62.852863 22.331933 63.923443 22.170693 C 64.994024 22.009453 66.067408 21.874853 67.143593 21.766893 C 68.221181 21.660335 69.300169 21.579014 70.380559 21.524333 C 71.460949 21.471053 72.54274 21.444414 73.624531 21.444414 C 74.707723 21.444414 75.788113 21.471053 76.869904 21.524333 C 77.950294 21.579014 79.029282 21.660335 80.105468 21.766893 C 81.183055 21.874853 82.256439 22.009453 83.327019 22.170693 C 84.3976 22.331933 85.462576 22.521214 86.524749 22.735733 C 87.585521 22.950251 88.640687 23.190008 89.690249 23.457806 C 90.739811 23.724202 91.782366 24.018639 92.817914 24.336912 C 93.853463 24.656587 94.880604 25.0015 95.899337 25.37165 C 96.918071 25.7418 97.928396 26.137187 98.927511 26.559214 C 99.928028 26.979839 100.915933 27.4243 101.894029 27.8954 C 102.872125 28.365098 103.839011 28.860033 104.793285 29.377402 C 105.747559 29.896173 106.689222 30.437377 107.616872 31.003819 C 108.544522 31.568859 109.45956 32.156332 110.359184 32.76764 C 111.258808 33.378948 112.143018 34.011288 113.011814 34.666061 C 113.88061 35.322236 114.733992 35.99804 115.570559 36.696278 C 116.407125 37.393113 117.225475 38.11098 118.02841 38.849878 C 118.829945 39.588776 119.613262 40.345901 120.378363 41.124058 C 121.143464 41.900812 121.888947 42.697195 122.616213 43.511806 C 123.342078 44.326416 124.049726 45.159254 124.736356 46.008917 C 125.421583 46.859981 126.087193 47.726469 126.731784 48.609781 C 127.376374 49.493094 127.999945 50.39183 128.601096 51.305988 C 129.202247 52.220146 129.780977 53.148326 130.337287 54.091928 C 130.893596 55.03553 131.426084 55.991751 131.936151 56.961993 C 132.446219 57.930832 132.933865 58.913693 133.396289 59.90777 C 133.858713 60.901847 134.297315 61.905739 134.710693 62.92225 C 135.125473 63.937358 135.51503 64.963683 135.879364 65.998421 C 136.243698 67.034561 136.582808 68.077711 136.896696 69.130675 C 137.210583 70.182238 137.499248 71.242213 137.762689 72.309199 C 138.026131 73.376184 138.262948 74.448778 138.47314 75.52698 C 138.684734 76.605182 138.869703 77.688993 139.028048 78.775608 C 139.187795 79.863624 139.319515 80.954445 139.426013 82.049473 C 139.531109 83.143098 139.610983 84.239527 139.664231 85.338761 C 139.71748 86.436592 139.744104 87.535825 139.744104 88.635059 Z M 139.744104 88.635059 " stroke="#000000" stroke-width="0.265" stroke-opacity="1" stroke-miterlimit="4"/></g><path fill="#000000" d="M 358.617188 186.105469 C 358.617188 188.925781 358.546875 191.75 358.410156 194.566406 C 358.273438 197.386719 358.066406 200.203125 357.792969 203.011719 C 357.519531 205.820312 357.175781 208.621094 356.765625 211.414062 C 356.355469 214.203125 355.875 216.984375 355.328125 219.753906 C 354.785156 222.523438 354.171875 225.277344 353.488281 228.015625 C 352.808594 230.753906 352.0625 233.472656 351.25 236.171875 C 350.4375 238.875 349.558594 241.554688 348.617188 244.210938 C 347.671875 246.871094 346.664062 249.503906 345.59375 252.109375 C 344.523438 254.71875 343.386719 257.296875 342.191406 259.851562 C 340.992188 262.402344 339.734375 264.921875 338.414062 267.414062 C 337.09375 269.902344 335.714844 272.355469 334.277344 274.777344 C 332.835938 277.199219 331.339844 279.582031 329.785156 281.929688 C 328.226562 284.277344 326.617188 286.585938 324.949219 288.851562 C 323.28125 291.121094 321.558594 293.34375 319.78125 295.527344 C 318.007812 297.707031 316.175781 299.84375 314.296875 301.9375 C 312.417969 304.027344 310.488281 306.070312 308.507812 308.066406 C 306.527344 310.0625 304.5 312.011719 302.425781 313.90625 C 300.351562 315.800781 298.230469 317.644531 296.066406 319.4375 C 293.902344 321.226562 291.695312 322.960938 289.445312 324.644531 C 287.199219 326.324219 284.910156 327.949219 282.582031 329.519531 C 280.253906 331.085938 277.886719 332.597656 275.488281 334.046875 C 273.085938 335.5 270.648438 336.890625 268.179688 338.222656 C 265.710938 339.550781 263.210938 340.820312 260.679688 342.027344 C 258.148438 343.234375 255.589844 344.378906 253.003906 345.457031 C 250.414062 346.539062 247.804688 347.554688 245.167969 348.503906 C 242.53125 349.457031 239.875 350.339844 237.195312 351.160156 C 234.515625 351.980469 231.816406 352.734375 229.101562 353.417969 C 226.382812 354.105469 223.652344 354.722656 220.90625 355.273438 C 218.160156 355.824219 215.402344 356.304688 212.632812 356.71875 C 209.863281 357.132812 207.085938 357.480469 204.300781 357.757812 C 201.511719 358.035156 198.722656 358.242188 195.925781 358.378906 C 193.128906 358.519531 190.328125 358.585938 187.53125 358.585938 C 184.730469 358.585938 181.929688 358.519531 179.136719 358.378906 C 176.339844 358.242188 173.546875 358.035156 170.761719 357.757812 C 167.972656 357.480469 165.195312 357.132812 162.425781 356.71875 C 159.65625 356.304688 156.898438 355.824219 154.152344 355.273438 C 151.40625 354.722656 148.675781 354.105469 145.957031 353.417969 C 143.242188 352.734375 140.546875 351.980469 137.867188 351.160156 C 135.1875 350.339844 132.527344 349.457031 129.890625 348.503906 C 127.253906 347.554688 124.644531 346.539062 122.058594 345.457031 C 119.46875 344.378906 116.910156 343.234375 114.378906 342.027344 C 111.847656 340.820312 109.347656 339.550781 106.878906 338.222656 C 104.410156 336.890625 101.976562 335.5 99.574219 334.046875 C 97.171875 332.597656 94.808594 331.085938 92.480469 329.519531 C 90.152344 327.949219 87.863281 326.324219 85.613281 324.644531 C 83.363281 322.960938 81.15625 321.226562 78.992188 319.433594 C 76.828125 317.644531 74.710938 315.800781 72.632812 313.90625 C 70.558594 312.011719 68.53125 310.0625 66.550781 308.066406 C 64.574219 306.070312 62.644531 304.027344 60.761719 301.9375 C 58.882812 299.84375 57.054688 297.707031 55.277344 295.527344 C 53.5 293.34375 51.777344 291.121094 50.109375 288.851562 C 48.441406 286.585938 46.832031 284.277344 45.277344 281.929688 C 43.71875 279.582031 42.222656 277.199219 40.78125 274.777344 C 39.34375 272.355469 37.964844 269.902344 36.644531 267.414062 C 35.324219 264.921875 34.066406 262.402344 32.867188 259.851562 C 31.671875 257.296875 30.535156 254.71875 29.464844 252.109375 C 28.394531 249.503906 27.386719 246.871094 26.441406 244.210938 C 25.5 241.554688 24.621094 238.875 23.808594 236.171875 C 22.996094 233.472656 22.25 230.753906 21.570312 228.015625 C 20.890625 225.277344 20.277344 222.523438 19.730469 219.753906 C 19.183594 216.984375 18.703125 214.203125 18.292969 211.414062 C 17.882812 208.621094 17.539062 205.820312 17.265625 203.011719 C 16.992188 200.203125 16.785156 197.386719 16.648438 194.566406 C 16.511719 191.75 16.441406 188.925781 16.441406 186.105469 C 16.441406 183.28125 16.511719 180.460938 16.648438 177.640625 C 16.785156 174.820312 16.992188 172.007812 17.265625 169.199219 C 17.539062 166.386719 17.882812 163.585938 18.292969 160.796875 C 18.703125 158.003906 19.183594 155.222656 19.730469 152.453125 C 20.277344 149.6875 20.890625 146.933594 21.570312 144.195312 C 22.25 141.457031 22.996094 138.734375 23.808594 136.035156 C 24.621094 133.332031 25.5 130.652344 26.441406 127.996094 C 27.386719 125.339844 28.394531 122.707031 29.464844 120.097656 C 30.535156 117.488281 31.671875 114.910156 32.867188 112.359375 C 34.066406 109.804688 35.324219 107.285156 36.644531 104.796875 C 37.964844 102.304688 39.34375 99.851562 40.78125 97.429688 C 42.222656 95.007812 43.71875 92.625 45.277344 90.277344 C 46.832031 87.929688 48.441406 85.625 50.109375 83.355469 C 51.777344 81.089844 53.5 78.863281 55.277344 76.683594 C 57.054688 74.5 58.882812 72.363281 60.761719 70.273438 C 62.644531 68.179688 64.574219 66.136719 66.550781 64.140625 C 68.53125 62.144531 70.558594 60.199219 72.632812 58.300781 C 74.710938 56.40625 76.828125 54.5625 78.992188 52.773438 C 81.15625 50.980469 83.363281 49.246094 85.613281 47.5625 C 87.863281 45.882812 90.152344 44.257812 92.480469 42.691406 C 94.808594 41.121094 97.171875 39.613281 99.574219 38.160156 C 101.976562 36.710938 104.410156 35.316406 106.878906 33.988281 C 109.347656 32.65625 111.847656 31.386719 114.378906 30.179688 C 116.910156 28.972656 119.46875 27.832031 122.058594 26.75 C 124.644531 25.671875 127.253906 24.65625 129.890625 23.703125 C 132.527344 22.753906 135.1875 21.867188 137.867188 21.046875 C 140.546875 20.230469 143.242188 19.476562 145.957031 18.789062 C 148.675781 18.105469 151.40625 17.484375 154.152344 16.933594 C 156.898438 16.382812 159.65625 15.902344 162.425781 15.488281 C 165.195312 15.074219 167.972656 14.726562 170.761719 14.453125 C 173.546875 14.175781 176.339844 13.96875 179.136719 13.828125 C 181.929688 13.691406 184.730469 13.621094 187.53125 13.621094 C 190.328125 13.621094 193.128906 13.691406 195.925781 13.828125 C 198.722656 13.96875 201.511719 14.175781 204.300781 14.453125 C 207.085938 14.726562 209.863281 15.074219 212.632812 15.488281 C 215.402344 15.902344 218.160156 16.382812 220.90625 16.933594 C 223.652344 17.484375 226.382812 18.105469 229.101562 18.789062 C 231.816406 19.476562 234.515625 20.230469 237.195312 21.046875 C 239.875 21.867188 242.53125 22.753906 245.167969 23.703125 C 247.804688 24.65625 250.414062 25.671875 253.003906 26.75 C 255.589844 27.832031 258.148438 28.972656 260.679688 30.179688 C 263.210938 31.386719 265.710938 32.65625 268.179688 33.988281 C 270.648438 35.316406 273.085938 36.710938 275.484375 38.160156 C 277.886719 39.613281 280.253906 41.121094 282.582031 42.691406 C 284.910156 44.257812 287.199219 45.882812 289.445312 47.5625 C 291.695312 49.246094 293.902344 50.980469 296.066406 52.773438 C 298.230469 54.5625 300.351562 56.40625 302.425781 58.300781 C 304.5 60.199219 306.527344 62.144531 308.507812 64.140625 C 310.488281 66.136719 312.417969 68.179688 314.296875 70.269531 C 316.175781 72.363281 318.007812 74.5 319.78125 76.683594 C 321.558594 78.863281 323.28125 81.089844 324.949219 83.355469 C 326.617188 85.625 328.226562 87.929688 329.785156 90.277344 C 331.339844 92.625 332.835938 95.007812 334.277344 97.429688 C 335.714844 99.851562 337.09375 102.304688 338.414062 104.796875 C 339.734375 107.285156 340.992188 109.804688 342.191406 112.359375 C 343.386719 114.910156 344.523438 117.488281 345.59375 120.097656 C 346.664062 122.707031 347.671875 125.339844 348.617188 127.996094 C 349.558594 130.652344 350.4375 133.332031 351.25 136.035156 C 352.0625 138.734375 352.808594 141.457031 353.488281 144.195312 C 354.171875 146.933594 354.785156 149.6875 355.328125 152.453125 C 355.875 155.222656 356.355469 158.003906 356.765625 160.796875 C 357.175781 163.585938 357.519531 166.386719 357.792969 169.199219 C 358.066406 172.007812 358.273438 174.820312 358.410156 177.640625 C 358.546875 180.460938 358.617188 183.28125 358.617188 186.105469 Z M 358.617188 186.105469 " fill-opacity="1" fill-rule="nonzero"/><path fill="#f4f1f1" d="M 358.773438 205.234375 C 358.234375 210.128906 357.492188 214.988281 356.542969 219.820312 L 354.179688 219.355469 C 355.117188 214.59375 355.847656 209.796875 356.378906 204.972656 Z M 355.5625 224.484375 C 354.5 229.210938 353.246094 233.882812 351.792969 238.5 L 349.496094 237.78125 C 350.925781 233.226562 352.164062 228.617188 353.210938 223.957031 Z M 350.257812 243.164062 C 348.667969 247.769531 346.890625 252.300781 344.921875 256.757812 L 342.71875 255.785156 C 344.660156 251.390625 346.414062 246.921875 347.980469 242.378906 Z M 342.910156 261.144531 C 340.820312 265.546875 338.546875 269.851562 336.097656 274.058594 L 334.015625 272.847656 C 336.433594 268.699219 338.671875 264.453125 340.734375 260.113281 Z M 333.570312 278.261719 C 331.003906 282.390625 328.273438 286.40625 325.371094 290.304688 L 323.4375 288.867188 C 326.300781 285.023438 328.992188 281.0625 331.523438 276.992188 Z M 322.417969 294.160156 C 319.402344 297.984375 316.234375 301.675781 312.910156 305.230469 L 311.148438 303.589844 C 314.425781 300.082031 317.554688 296.441406 320.527344 292.671875 Z M 309.53125 308.742188 C 306.101562 312.210938 302.53125 315.527344 298.820312 318.695312 L 297.257812 316.863281 C 300.914062 313.742188 304.4375 310.472656 307.820312 307.050781 Z M 295.074219 321.796875 C 291.296875 324.839844 287.402344 327.71875 283.386719 330.425781 L 282.039062 328.433594 C 285.996094 325.761719 289.839844 322.925781 293.566406 319.925781 Z M 279.300781 333.101562 C 275.164062 335.726562 270.925781 338.167969 266.585938 340.429688 L 265.472656 338.292969 C 269.75 336.066406 273.929688 333.65625 278.007812 331.070312 Z M 262.25 342.605469 C 257.902344 344.71875 253.472656 346.640625 248.964844 348.375 L 248.097656 346.128906 C 252.542969 344.417969 256.910156 342.523438 261.199219 340.441406 Z M 244.320312 350.085938 C 239.714844 351.707031 235.046875 353.128906 230.324219 354.347656 L 229.71875 352.019531 C 234.378906 350.8125 238.980469 349.414062 243.519531 347.8125 Z M 225.652344 355.484375 C 220.902344 356.574219 216.109375 357.453125 211.28125 358.132812 L 210.949219 355.75 C 215.707031 355.082031 220.429688 354.210938 225.117188 353.140625 Z M 206.402344 358.746094 C 201.609375 359.277344 196.804688 359.605469 191.980469 359.734375 L 191.917969 357.328125 C 196.671875 357.203125 201.410156 356.878906 206.136719 356.355469 Z M 187.265625 359.789062 C 182.488281 359.785156 177.722656 359.578125 172.960938 359.167969 L 173.167969 356.769531 C 177.859375 357.171875 182.5625 357.375 187.269531 357.382812 Z M 168.113281 358.683594 C 163.222656 358.125 158.367188 357.355469 153.546875 356.378906 L 154.023438 354.019531 C 158.78125 354.984375 163.566406 355.742188 168.386719 356.292969 Z M 148.882812 355.363281 C 144.160156 354.269531 139.488281 352.972656 134.875 351.480469 L 135.613281 349.191406 C 140.167969 350.664062 144.769531 351.941406 149.425781 353.019531 Z M 130.214844 349.898438 C 125.628906 348.269531 121.121094 346.445312 116.6875 344.429688 L 117.683594 342.238281 C 122.054688 344.226562 126.503906 346.023438 131.023438 347.632812 Z M 112.320312 342.367188 C 107.941406 340.226562 103.65625 337.902344 99.472656 335.390625 L 100.710938 333.328125 C 104.839844 335.800781 109.058594 338.09375 113.378906 340.207031 Z M 95.292969 332.804688 C 91.203125 330.191406 87.230469 327.410156 83.375 324.460938 L 84.839844 322.550781 C 88.640625 325.457031 92.558594 328.203125 96.59375 330.777344 Z M 79.558594 321.457031 C 75.773438 318.386719 72.125 315.164062 68.609375 311.785156 L 70.28125 310.050781 C 73.746094 313.382812 77.34375 316.558594 81.078125 319.585938 Z M 65.144531 308.355469 C 61.726562 304.878906 58.464844 301.265625 55.355469 297.515625 L 57.207031 295.980469 C 60.277344 299.679688 63.492188 303.242188 66.859375 306.667969 Z M 52.304688 293.730469 C 49.316406 289.914062 46.488281 285.980469 43.828125 281.925781 L 45.84375 280.605469 C 48.46875 284.601562 51.253906 288.484375 54.199219 292.246094 Z M 41.199219 277.792969 C 38.636719 273.632812 36.25 269.371094 34.042969 265.007812 L 36.191406 263.921875 C 38.367188 268.226562 40.722656 272.425781 43.25 276.527344 Z M 31.917969 260.65625 C 29.851562 256.277344 27.976562 251.824219 26.28125 247.289062 L 28.539062 246.449219 C 30.207031 250.917969 32.0625 255.3125 34.09375 259.628906 Z M 24.621094 242.640625 C 23.046875 238.03125 21.667969 233.359375 20.480469 228.632812 L 22.820312 228.046875 C 23.988281 232.710938 25.347656 237.316406 26.902344 241.863281 Z M 19.378906 223.960938 C 18.324219 219.199219 17.472656 214.398438 16.816406 209.566406 L 19.203125 209.242188 C 19.847656 214.011719 20.691406 218.742188 21.730469 223.441406 Z M 16.226562 204.691406 C 15.714844 199.902344 15.402344 195.101562 15.289062 190.289062 L 17.695312 190.230469 C 17.808594 194.976562 18.117188 199.710938 18.621094 204.433594 Z M 15.238281 185.578125 C 15.253906 180.800781 15.460938 176.035156 15.867188 171.277344 L 18.265625 171.480469 C 17.867188 176.171875 17.660156 180.875 17.648438 185.585938 Z M 16.347656 166.425781 C 16.898438 161.542969 17.65625 156.6875 18.617188 151.867188 L 20.980469 152.335938 C 20.03125 157.09375 19.285156 161.878906 18.742188 166.699219 Z M 19.617188 147.199219 C 20.691406 142.472656 21.964844 137.800781 23.429688 133.183594 L 25.726562 133.910156 C 24.28125 138.464844 23.027344 143.074219 21.964844 147.734375 Z M 24.980469 128.523438 C 26.585938 123.925781 28.375 119.402344 30.355469 114.957031 L 32.558594 115.933594 C 30.605469 120.320312 28.835938 124.78125 27.257812 129.316406 Z M 32.382812 110.574219 C 34.488281 106.175781 36.773438 101.878906 39.238281 97.675781 L 41.316406 98.894531 C 38.886719 103.039062 36.632812 107.277344 34.554688 111.613281 Z M 41.78125 93.480469 C 44.359375 89.359375 47.101562 85.355469 50.011719 81.46875 L 51.941406 82.910156 C 49.070312 86.742188 46.363281 90.691406 43.824219 94.757812 Z M 52.976562 77.621094 C 56.007812 73.804688 59.1875 70.125 62.523438 66.578125 L 64.277344 68.226562 C 60.988281 71.722656 57.851562 75.351562 54.867188 79.117188 Z M 65.910156 63.078125 C 69.355469 59.617188 72.933594 56.3125 76.65625 53.160156 L 78.210938 54.996094 C 74.542969 58.105469 71.011719 61.363281 67.621094 64.773438 Z M 80.410156 50.070312 C 84.195312 47.039062 88.097656 44.175781 92.121094 41.480469 L 93.464844 43.476562 C 89.496094 46.136719 85.644531 48.960938 81.914062 51.949219 Z M 96.226562 38.8125 C 100.367188 36.203125 104.613281 33.773438 108.957031 31.53125 L 110.066406 33.667969 C 105.777344 35.882812 101.59375 38.273438 97.511719 40.847656 Z M 113.296875 29.367188 C 117.65625 27.265625 122.097656 25.355469 126.617188 23.636719 L 127.472656 25.882812 C 123.019531 27.582031 118.640625 29.464844 114.34375 31.535156 Z M 131.261719 21.941406 C 135.867188 20.335938 140.535156 18.929688 145.261719 17.726562 L 145.855469 20.058594 C 141.195312 21.246094 136.59375 22.632812 132.054688 24.214844 Z M 149.929688 16.605469 C 154.691406 15.53125 159.492188 14.664062 164.324219 14 L 164.652344 16.382812 C 159.886719 17.039062 155.15625 17.894531 150.460938 18.953125 Z M 169.203125 13.402344 C 173.992188 12.886719 178.792969 12.574219 183.609375 12.460938 L 183.664062 14.867188 C 178.917969 14.976562 174.183594 15.285156 169.460938 15.796875 Z M 188.320312 12.417969 C 193.101562 12.441406 197.875 12.664062 202.640625 13.085938 L 202.425781 15.484375 C 197.730469 15.066406 193.023438 14.847656 188.308594 14.828125 Z M 207.496094 13.585938 C 212.375 14.160156 217.222656 14.945312 222.035156 15.9375 L 221.550781 18.292969 C 216.804688 17.316406 212.023438 16.542969 207.214844 15.976562 Z M 226.699219 16.964844 C 231.425781 18.078125 236.09375 19.386719 240.710938 20.898438 L 239.960938 23.1875 C 235.410156 21.699219 230.808594 20.40625 226.148438 19.308594 Z M 245.363281 22.496094 C 249.941406 24.140625 254.441406 25.976562 258.863281 28.003906 L 257.859375 30.191406 C 253.5 28.191406 249.0625 26.382812 244.550781 24.761719 Z M 263.226562 30.078125 C 267.601562 32.238281 271.878906 34.578125 276.058594 37.101562 L 274.8125 39.160156 C 270.691406 36.671875 266.476562 34.363281 262.160156 32.238281 Z M 280.230469 39.699219 C 284.308594 42.324219 288.269531 45.117188 292.117188 48.078125 L 290.648438 49.984375 C 286.855469 47.066406 282.949219 44.3125 278.925781 41.722656 Z M 295.921875 51.097656 C 299.699219 54.179688 303.339844 57.414062 306.84375 60.804688 L 305.167969 62.535156 C 301.710938 59.191406 298.125 56 294.398438 52.960938 Z M 310.300781 64.246094 C 313.703125 67.730469 316.953125 71.351562 320.054688 75.113281 L 318.195312 76.644531 C 315.136719 72.933594 311.933594 69.363281 308.574219 65.925781 Z M 323.09375 78.90625 C 326.066406 82.730469 328.878906 86.675781 331.527344 90.738281 L 329.507812 92.050781 C 326.898438 88.042969 324.125 84.15625 321.191406 80.386719 Z M 334.148438 94.886719 C 336.699219 99.050781 339.070312 103.316406 341.261719 107.6875 L 339.109375 108.765625 C 336.945312 104.457031 334.609375 100.25 332.09375 96.140625 Z M 343.375 112.042969 C 345.425781 116.429688 347.289062 120.894531 348.972656 125.441406 L 346.710938 126.273438 C 345.054688 121.792969 343.214844 117.390625 341.191406 113.0625 Z M 350.617188 130.089844 C 352.175781 134.703125 353.539062 139.375 354.707031 144.101562 L 352.371094 144.679688 C 351.21875 140.015625 349.871094 135.410156 348.332031 130.859375 Z M 355.792969 148.773438 C 356.835938 153.542969 357.675781 158.351562 358.316406 163.191406 L 355.929688 163.507812 C 355.296875 158.730469 354.46875 153.992188 353.441406 149.285156 Z M 358.890625 168.0625 C 359.386719 172.847656 359.683594 177.640625 359.785156 182.449219 L 357.375 182.5 C 357.277344 177.757812 356.984375 173.027344 356.492188 168.3125 Z M 359.820312 186.105469 C 359.820312 190.875 359.625 195.636719 359.238281 200.390625 L 356.835938 200.195312 C 357.222656 195.503906 357.414062 190.808594 357.414062 186.105469 Z M 359.820312 186.105469 " fill-opacity="1" fill-rule="nonzero"/><g fill="#fffdfd" fill-opacity="1"><g transform="translate(115.182786, 231.254531)"><g><path d="M 16.96875 0.65625 C 13.9375 0.65625 11.257812 0.046875 8.9375 -1.171875 C 6.625 -2.398438 4.828125 -4.117188 3.546875 -6.328125 C 2.273438 -8.535156 1.640625 -11.097656 1.640625 -14.015625 L 1.640625 -24.3125 C 1.640625 -27.15625 2.273438 -29.671875 3.546875 -31.859375 C 4.828125 -34.054688 6.625 -35.753906 8.9375 -36.953125 C 11.257812 -38.160156 13.9375 -38.765625 16.96875 -38.765625 C 20.039062 -38.765625 22.734375 -38.160156 25.046875 -36.953125 C 27.367188 -35.753906 29.164062 -34.054688 30.4375 -31.859375 C 31.71875 -29.671875 32.359375 -27.15625 32.359375 -24.3125 L 32.359375 -14.015625 C 32.359375 -11.097656 31.71875 -8.535156 30.4375 -6.328125 C 29.164062 -4.117188 27.367188 -2.398438 25.046875 -1.171875 C 22.734375 0.046875 20.039062 0.65625 16.96875 0.65625 Z M 16.96875 -8.15625 C 18.5 -8.15625 19.726562 -8.65625 20.65625 -9.65625 C 21.59375 -10.664062 22.0625 -12.007812 22.0625 -13.6875 L 22.0625 -24.421875 C 22.0625 -26.097656 21.59375 -27.4375 20.65625 -28.4375 C 19.726562 -29.445312 18.5 -29.953125 16.96875 -29.953125 C 15.476562 -29.953125 14.265625 -29.445312 13.328125 -28.4375 C 12.398438 -27.4375 11.9375 -26.097656 11.9375 -24.421875 L 11.9375 -13.6875 C 11.9375 -12.007812 12.398438 -10.664062 13.328125 -9.65625 C 14.265625 -8.65625 15.476562 -8.15625 16.96875 -8.15625 Z M 16.96875 -8.15625 "/></g></g></g><g fill="#fffdfd" fill-opacity="1"><g transform="translate(149.180182, 231.254531)"><g><path d="M 29.296875 -21.359375 C 30.097656 -19.304688 30.5 -16.96875 30.5 -14.34375 C 30.5 -12.082031 30.222656 -10.039062 29.671875 -8.21875 C 28.867188 -5.550781 27.488281 -3.441406 25.53125 -1.890625 C 23.582031 -0.335938 21.382812 0.4375 18.9375 0.4375 C 16.238281 0.4375 14.175781 -0.472656 12.75 -2.296875 C 12.644531 -2.484375 12.535156 -2.554688 12.421875 -2.515625 C 12.316406 -2.484375 12.265625 -2.375 12.265625 -2.1875 L 12.265625 -1.046875 C 12.265625 -0.347656 11.914062 0 11.21875 0 L 3.015625 0 C 2.316406 0 1.96875 -0.347656 1.96875 -1.046875 L 1.96875 -37.28125 C 1.96875 -37.976562 2.316406 -38.328125 3.015625 -38.328125 L 11.21875 -38.328125 C 11.914062 -38.328125 12.265625 -37.976562 12.265625 -37.28125 L 12.265625 -26.828125 C 12.265625 -26.640625 12.304688 -26.519531 12.390625 -26.46875 C 12.484375 -26.414062 12.601562 -26.460938 12.75 -26.609375 C 14 -28.140625 15.914062 -28.90625 18.5 -28.90625 C 21.09375 -28.90625 23.320312 -28.203125 25.1875 -26.796875 C 27.050781 -25.390625 28.421875 -23.578125 29.296875 -21.359375 Z M 18.890625 -10.1875 C 19.429688 -11.238281 19.703125 -12.570312 19.703125 -14.1875 C 19.703125 -15.894531 19.429688 -17.257812 18.890625 -18.28125 C 18.265625 -19.488281 17.296875 -20.09375 15.984375 -20.09375 C 14.742188 -20.09375 13.796875 -19.523438 13.140625 -18.390625 C 12.554688 -17.335938 12.265625 -15.9375 12.265625 -14.1875 C 12.265625 -12.570312 12.535156 -11.253906 13.078125 -10.234375 C 13.742188 -8.992188 14.710938 -8.375 15.984375 -8.375 C 17.265625 -8.375 18.234375 -8.976562 18.890625 -10.1875 Z M 18.890625 -10.1875 "/></g></g></g><g fill="#fffdfd" fill-opacity="1"><g transform="translate(180.221283, 231.254531)"><g><path d="M 17.796875 -28.859375 C 18.921875 -28.859375 19.851562 -28.65625 20.59375 -28.25 C 21.0625 -28 21.242188 -27.5625 21.140625 -26.9375 L 19.8125 -18.890625 C 19.707031 -18.265625 19.304688 -18.023438 18.609375 -18.171875 C 18.210938 -18.285156 17.722656 -18.34375 17.140625 -18.34375 C 16.628906 -18.34375 16.097656 -18.285156 15.546875 -18.171875 C 14.597656 -17.992188 13.785156 -17.601562 13.109375 -17 C 12.429688 -16.394531 12.09375 -15.582031 12.09375 -14.5625 L 12.09375 -1.046875 C 12.09375 -0.347656 11.75 0 11.0625 0 L 2.84375 0 C 2.15625 0 1.8125 -0.347656 1.8125 -1.046875 L 1.8125 -27.4375 C 1.8125 -28.125 2.15625 -28.46875 2.84375 -28.46875 L 11.0625 -28.46875 C 11.75 -28.46875 12.09375 -28.125 12.09375 -27.4375 L 12.09375 -26.65625 C 12.09375 -26.476562 12.140625 -26.351562 12.234375 -26.28125 C 12.328125 -26.207031 12.425781 -26.242188 12.53125 -26.390625 C 13.882812 -28.035156 15.640625 -28.859375 17.796875 -28.859375 Z M 17.796875 -28.859375 "/></g></g></g><g fill="#fffdfd" fill-opacity="1"><g transform="translate(201.900774, 231.254531)"><g><path d="M 14.1875 -28.90625 C 16.664062 -28.90625 18.941406 -28.484375 21.015625 -27.640625 C 23.097656 -26.804688 24.742188 -25.660156 25.953125 -24.203125 C 27.160156 -22.742188 27.765625 -21.15625 27.765625 -19.4375 L 27.765625 -1.046875 C 27.765625 -0.347656 27.414062 0 26.71875 0 L 18.5 0 C 17.8125 0 17.46875 -0.347656 17.46875 -1.046875 L 17.46875 -2.03125 C 17.46875 -2.207031 17.421875 -2.3125 17.328125 -2.34375 C 17.234375 -2.382812 17.113281 -2.332031 16.96875 -2.1875 C 16.351562 -1.28125 15.492188 -0.613281 14.390625 -0.1875 C 13.296875 0.226562 11.929688 0.4375 10.296875 0.4375 C 7.296875 0.4375 4.9375 -0.242188 3.21875 -1.609375 C 1.507812 -2.984375 0.65625 -4.984375 0.65625 -7.609375 C 0.65625 -10.378906 1.628906 -12.515625 3.578125 -14.015625 C 5.535156 -15.515625 8.375 -16.265625 12.09375 -16.265625 L 17.03125 -16.265625 C 17.320312 -16.265625 17.46875 -16.410156 17.46875 -16.703125 L 17.46875 -17.515625 C 17.46875 -18.285156 17.179688 -18.90625 16.609375 -19.375 C 16.046875 -19.851562 15.289062 -20.09375 14.34375 -20.09375 C 13.71875 -20.09375 13.160156 -19.988281 12.671875 -19.78125 C 12.179688 -19.582031 11.828125 -19.320312 11.609375 -19 C 11.390625 -18.707031 11.207031 -18.503906 11.0625 -18.390625 C 10.914062 -18.285156 10.695312 -18.25 10.40625 -18.28125 L 1.96875 -19.375 C 1.3125 -19.445312 1.003906 -19.722656 1.046875 -20.203125 C 1.191406 -21.847656 1.851562 -23.328125 3.03125 -24.640625 C 4.21875 -25.953125 5.78125 -26.988281 7.71875 -27.75 C 9.65625 -28.519531 11.8125 -28.90625 14.1875 -28.90625 Z M 13.46875 -6.671875 C 14.632812 -6.671875 15.59375 -6.984375 16.34375 -7.609375 C 17.09375 -8.234375 17.46875 -9.070312 17.46875 -10.125 L 17.46875 -10.671875 C 17.46875 -10.960938 17.320312 -11.109375 17.03125 -11.109375 L 14.453125 -11.109375 C 12.148438 -11.109375 11 -10.363281 11 -8.875 C 11 -8.21875 11.207031 -7.6875 11.625 -7.28125 C 12.050781 -6.875 12.664062 -6.671875 13.46875 -6.671875 Z M 13.46875 -6.671875 "/></g></g></g><g fill="#fffdfd" fill-opacity="1"><g transform="translate(231.463727, 231.254531)"><g><path d="M 14.5625 0.4375 C 10.4375 0.4375 7.175781 -0.363281 4.78125 -1.96875 C 2.394531 -3.570312 1.203125 -5.707031 1.203125 -8.375 L 1.203125 -8.65625 C 1.203125 -9.34375 1.550781 -9.6875 2.25 -9.6875 L 10.015625 -9.6875 C 10.710938 -9.6875 11.0625 -9.597656 11.0625 -9.421875 L 11.0625 -9.09375 C 11.0625 -8.507812 11.378906 -8.035156 12.015625 -7.671875 C 12.648438 -7.304688 13.484375 -7.125 14.515625 -7.125 C 15.316406 -7.125 15.960938 -7.238281 16.453125 -7.46875 C 16.941406 -7.707031 17.1875 -8.046875 17.1875 -8.484375 C 17.1875 -8.992188 16.894531 -9.347656 16.3125 -9.546875 C 15.726562 -9.753906 14.6875 -9.984375 13.1875 -10.234375 C 11.800781 -10.421875 10.5625 -10.640625 9.46875 -10.890625 C 8.375 -11.148438 7.316406 -11.535156 6.296875 -12.046875 C 3.160156 -13.578125 1.59375 -15.984375 1.59375 -19.265625 C 1.59375 -22.222656 2.738281 -24.566406 5.03125 -26.296875 C 7.332031 -28.035156 10.363281 -28.90625 14.125 -28.90625 C 16.675781 -28.90625 18.910156 -28.492188 20.828125 -27.671875 C 22.742188 -26.847656 24.226562 -25.6875 25.28125 -24.1875 C 26.34375 -22.695312 26.875 -20.96875 26.875 -19 C 26.875 -18.59375 26.53125 -18.390625 25.84375 -18.390625 L 18.34375 -18.390625 C 18.007812 -18.390625 17.75 -18.425781 17.5625 -18.5 C 17.382812 -18.570312 17.296875 -18.644531 17.296875 -18.71875 L 17.296875 -19 C 17.296875 -19.613281 17.019531 -20.09375 16.46875 -20.4375 C 15.925781 -20.789062 15.203125 -20.96875 14.296875 -20.96875 C 13.453125 -20.96875 12.765625 -20.828125 12.234375 -20.546875 C 11.703125 -20.273438 11.4375 -19.90625 11.4375 -19.4375 C 11.4375 -18.851562 11.78125 -18.453125 12.46875 -18.234375 C 13.164062 -18.015625 14.285156 -17.796875 15.828125 -17.578125 C 16.003906 -17.535156 16.703125 -17.421875 17.921875 -17.234375 C 19.148438 -17.054688 20.332031 -16.769531 21.46875 -16.375 C 23.4375 -15.675781 24.941406 -14.710938 25.984375 -13.484375 C 27.023438 -12.265625 27.546875 -10.671875 27.546875 -8.703125 C 27.546875 -5.710938 26.375 -3.441406 24.03125 -1.890625 C 21.695312 -0.335938 18.539062 0.4375 14.5625 0.4375 Z M 14.5625 0.4375 "/></g></g></g><g fill="#fffdfd" fill-opacity="1"><g transform="translate(54.083233, 277.108171)"><g><path d="M 29.84375 -30.546875 C 29.84375 -29.859375 29.492188 -29.515625 28.796875 -29.515625 L 12.859375 -29.515625 C 12.566406 -29.515625 12.421875 -29.367188 12.421875 -29.078125 L 12.421875 -24.25 C 12.421875 -23.957031 12.566406 -23.8125 12.859375 -23.8125 L 22.609375 -23.8125 C 23.304688 -23.8125 23.65625 -23.46875 23.65625 -22.78125 L 23.65625 -16.09375 C 23.65625 -15.40625 23.304688 -15.0625 22.609375 -15.0625 L 12.859375 -15.0625 C 12.566406 -15.0625 12.421875 -14.914062 12.421875 -14.625 L 12.421875 -1.046875 C 12.421875 -0.347656 12.078125 0 11.390625 0 L 3.171875 0 C 2.484375 0 2.140625 -0.347656 2.140625 -1.046875 L 2.140625 -37.28125 C 2.140625 -37.976562 2.484375 -38.328125 3.171875 -38.328125 L 28.796875 -38.328125 C 29.492188 -38.328125 29.84375 -37.976562 29.84375 -37.28125 Z M 29.84375 -30.546875 "/></g></g></g><g fill="#fffdfd" fill-opacity="1"><g transform="translate(84.412634, 277.108171)"><g><path d="M 18.125 -27.4375 C 18.125 -28.125 18.46875 -28.46875 19.15625 -28.46875 L 27.375 -28.46875 C 28.070312 -28.46875 28.421875 -28.125 28.421875 -27.4375 L 28.421875 -1.046875 C 28.421875 -0.347656 28.070312 0 27.375 0 L 19.15625 0 C 18.46875 0 18.125 -0.347656 18.125 -1.046875 L 18.125 -2.359375 C 18.125 -2.535156 18.066406 -2.640625 17.953125 -2.671875 C 17.847656 -2.710938 17.738281 -2.660156 17.625 -2.515625 C 16.164062 -0.546875 13.882812 0.4375 10.78125 0.4375 C 8.007812 0.4375 5.800781 -0.460938 4.15625 -2.265625 C 2.519531 -4.078125 1.703125 -6.585938 1.703125 -9.796875 L 1.703125 -27.4375 C 1.703125 -28.125 2.046875 -28.46875 2.734375 -28.46875 L 10.953125 -28.46875 C 11.640625 -28.46875 11.984375 -28.125 11.984375 -27.4375 L 11.984375 -12.046875 C 11.984375 -10.953125 12.265625 -10.066406 12.828125 -9.390625 C 13.398438 -8.710938 14.144531 -8.375 15.0625 -8.375 C 15.820312 -8.375 16.46875 -8.609375 17 -9.078125 C 17.53125 -9.554688 17.882812 -10.195312 18.0625 -11 C 18.101562 -11.144531 18.125 -11.328125 18.125 -11.546875 Z M 18.125 -27.4375 "/></g></g></g><g fill="#fffdfd" fill-opacity="1"><g transform="translate(114.632537, 277.108171)"><g><path d="M 18.890625 -28.90625 C 20.710938 -28.90625 22.351562 -28.503906 23.8125 -27.703125 C 25.269531 -26.898438 26.425781 -25.722656 27.28125 -24.171875 C 28.144531 -22.617188 28.578125 -20.785156 28.578125 -18.671875 L 28.578125 -1.046875 C 28.578125 -0.347656 28.234375 0 27.546875 0 L 19.328125 0 C 18.628906 0 18.28125 -0.347656 18.28125 -1.046875 L 18.28125 -16.421875 C 18.28125 -17.515625 18 -18.398438 17.4375 -19.078125 C 16.875 -19.753906 16.132812 -20.09375 15.21875 -20.09375 C 14.269531 -20.09375 13.507812 -19.753906 12.9375 -19.078125 C 12.375 -18.398438 12.09375 -17.515625 12.09375 -16.421875 L 12.09375 -1.046875 C 12.09375 -0.347656 11.75 0 11.0625 0 L 2.84375 0 C 2.15625 0 1.8125 -0.347656 1.8125 -1.046875 L 1.8125 -27.4375 C 1.8125 -28.125 2.15625 -28.46875 2.84375 -28.46875 L 11.0625 -28.46875 C 11.75 -28.46875 12.09375 -28.125 12.09375 -27.4375 L 12.09375 -26 C 12.09375 -25.820312 12.140625 -25.703125 12.234375 -25.640625 C 12.328125 -25.585938 12.425781 -25.632812 12.53125 -25.78125 C 13.925781 -27.863281 16.046875 -28.90625 18.890625 -28.90625 Z M 18.890625 -28.90625 "/></g></g></g><g fill="#fffdfd" fill-opacity="1"><g transform="translate(144.852439, 277.108171)"><g><path d="M 16.8125 -8.265625 C 17.90625 -8.265625 18.925781 -8.398438 19.875 -8.671875 C 20.820312 -8.953125 21.609375 -9.328125 22.234375 -9.796875 C 22.523438 -10.015625 22.757812 -10.125 22.9375 -10.125 C 23.195312 -10.125 23.4375 -9.976562 23.65625 -9.6875 L 27.375 -4.546875 C 27.5625 -4.253906 27.65625 -4.035156 27.65625 -3.890625 C 27.65625 -3.628906 27.523438 -3.375 27.265625 -3.125 C 25.953125 -1.914062 24.351562 -1.019531 22.46875 -0.4375 C 20.59375 0.144531 18.578125 0.4375 16.421875 0.4375 C 13.679688 0.4375 11.257812 -0.046875 9.15625 -1.015625 C 7.0625 -1.984375 5.359375 -3.359375 4.046875 -5.140625 C 2.222656 -7.703125 1.3125 -10.804688 1.3125 -14.453125 C 1.3125 -16.023438 1.515625 -17.554688 1.921875 -19.046875 C 2.753906 -22.003906 4.398438 -24.382812 6.859375 -26.1875 C 9.328125 -28 12.1875 -28.90625 15.4375 -28.90625 C 19.195312 -28.90625 22.242188 -27.691406 24.578125 -25.265625 C 26.921875 -22.835938 28.457031 -19.523438 29.1875 -15.328125 C 29.363281 -14.453125 29.472656 -13.578125 29.515625 -12.703125 C 29.515625 -12.003906 29.164062 -11.65625 28.46875 -11.65625 L 12.203125 -11.65625 C 11.910156 -11.65625 11.785156 -11.492188 11.828125 -11.171875 L 12.09375 -10.453125 C 12.789062 -8.992188 14.363281 -8.265625 16.8125 -8.265625 Z M 15.21875 -20.09375 C 13.71875 -20.09375 12.675781 -19.363281 12.09375 -17.90625 L 11.9375 -17.46875 L 11.875 -17.296875 C 11.875 -17.078125 12.019531 -16.96875 12.3125 -16.96875 L 18.234375 -16.96875 C 18.523438 -16.96875 18.671875 -17.078125 18.671875 -17.296875 C 18.671875 -17.410156 18.640625 -17.519531 18.578125 -17.625 C 18.523438 -17.738281 18.484375 -17.832031 18.453125 -17.90625 C 17.828125 -19.363281 16.75 -20.09375 15.21875 -20.09375 Z M 15.21875 -20.09375 "/></g></g></g><g fill="#fffdfd" fill-opacity="1"><g transform="translate(175.291329, 277.108171)"><g><path d="M 17.796875 -28.859375 C 18.921875 -28.859375 19.851562 -28.65625 20.59375 -28.25 C 21.0625 -28 21.242188 -27.5625 21.140625 -26.9375 L 19.8125 -18.890625 C 19.707031 -18.265625 19.304688 -18.023438 18.609375 -18.171875 C 18.210938 -18.285156 17.722656 -18.34375 17.140625 -18.34375 C 16.628906 -18.34375 16.097656 -18.285156 15.546875 -18.171875 C 14.597656 -17.992188 13.785156 -17.601562 13.109375 -17 C 12.429688 -16.394531 12.09375 -15.582031 12.09375 -14.5625 L 12.09375 -1.046875 C 12.09375 -0.347656 11.75 0 11.0625 0 L 2.84375 0 C 2.15625 0 1.8125 -0.347656 1.8125 -1.046875 L 1.8125 -27.4375 C 1.8125 -28.125 2.15625 -28.46875 2.84375 -28.46875 L 11.0625 -28.46875 C 11.75 -28.46875 12.09375 -28.125 12.09375 -27.4375 L 12.09375 -26.65625 C 12.09375 -26.476562 12.140625 -26.351562 12.234375 -26.28125 C 12.328125 -26.207031 12.425781 -26.242188 12.53125 -26.390625 C 13.882812 -28.035156 15.640625 -28.859375 17.796875 -28.859375 Z M 17.796875 -28.859375 "/></g></g></g><g fill="#fffdfd" fill-opacity="1"><g transform="translate(196.970821, 277.108171)"><g><path d="M 14.1875 -28.90625 C 16.664062 -28.90625 18.941406 -28.484375 21.015625 -27.640625 C 23.097656 -26.804688 24.742188 -25.660156 25.953125 -24.203125 C 27.160156 -22.742188 27.765625 -21.15625 27.765625 -19.4375 L 27.765625 -1.046875 C 27.765625 -0.347656 27.414062 0 26.71875 0 L 18.5 0 C 17.8125 0 17.46875 -0.347656 17.46875 -1.046875 L 17.46875 -2.03125 C 17.46875 -2.207031 17.421875 -2.3125 17.328125 -2.34375 C 17.234375 -2.382812 17.113281 -2.332031 16.96875 -2.1875 C 16.351562 -1.28125 15.492188 -0.613281 14.390625 -0.1875 C 13.296875 0.226562 11.929688 0.4375 10.296875 0.4375 C 7.296875 0.4375 4.9375 -0.242188 3.21875 -1.609375 C 1.507812 -2.984375 0.65625 -4.984375 0.65625 -7.609375 C 0.65625 -10.378906 1.628906 -12.515625 3.578125 -14.015625 C 5.535156 -15.515625 8.375 -16.265625 12.09375 -16.265625 L 17.03125 -16.265625 C 17.320312 -16.265625 17.46875 -16.410156 17.46875 -16.703125 L 17.46875 -17.515625 C 17.46875 -18.285156 17.179688 -18.90625 16.609375 -19.375 C 16.046875 -19.851562 15.289062 -20.09375 14.34375 -20.09375 C 13.71875 -20.09375 13.160156 -19.988281 12.671875 -19.78125 C 12.179688 -19.582031 11.828125 -19.320312 11.609375 -19 C 11.390625 -18.707031 11.207031 -18.503906 11.0625 -18.390625 C 10.914062 -18.285156 10.695312 -18.25 10.40625 -18.28125 L 1.96875 -19.375 C 1.3125 -19.445312 1.003906 -19.722656 1.046875 -20.203125 C 1.191406 -21.847656 1.851562 -23.328125 3.03125 -24.640625 C 4.21875 -25.953125 5.78125 -26.988281 7.71875 -27.75 C 9.65625 -28.519531 11.8125 -28.90625 14.1875 -28.90625 Z M 13.46875 -6.671875 C 14.632812 -6.671875 15.59375 -6.984375 16.34375 -7.609375 C 17.09375 -8.234375 17.46875 -9.070312 17.46875 -10.125 L 17.46875 -10.671875 C 17.46875 -10.960938 17.320312 -11.109375 17.03125 -11.109375 L 14.453125 -11.109375 C 12.148438 -11.109375 11 -10.363281 11 -8.875 C 11 -8.21875 11.207031 -7.6875 11.625 -7.28125 C 12.050781 -6.875 12.664062 -6.671875 13.46875 -6.671875 Z M 13.46875 -6.671875 "/></g></g></g><g fill="#fffdfd" fill-opacity="1"><g transform="translate(226.533774, 277.108171)"><g><path d="M 17.796875 -28.859375 C 18.921875 -28.859375 19.851562 -28.65625 20.59375 -28.25 C 21.0625 -28 21.242188 -27.5625 21.140625 -26.9375 L 19.8125 -18.890625 C 19.707031 -18.265625 19.304688 -18.023438 18.609375 -18.171875 C 18.210938 -18.285156 17.722656 -18.34375 17.140625 -18.34375 C 16.628906 -18.34375 16.097656 -18.285156 15.546875 -18.171875 C 14.597656 -17.992188 13.785156 -17.601562 13.109375 -17 C 12.429688 -16.394531 12.09375 -15.582031 12.09375 -14.5625 L 12.09375 -1.046875 C 12.09375 -0.347656 11.75 0 11.0625 0 L 2.84375 0 C 2.15625 0 1.8125 -0.347656 1.8125 -1.046875 L 1.8125 -27.4375 C 1.8125 -28.125 2.15625 -28.46875 2.84375 -28.46875 L 11.0625 -28.46875 C 11.75 -28.46875 12.09375 -28.125 12.09375 -27.4375 L 12.09375 -26.65625 C 12.09375 -26.476562 12.140625 -26.351562 12.234375 -26.28125 C 12.328125 -26.207031 12.425781 -26.242188 12.53125 -26.390625 C 13.882812 -28.035156 15.640625 -28.859375 17.796875 -28.859375 Z M 17.796875 -28.859375 "/></g></g></g><g fill="#fffdfd" fill-opacity="1"><g transform="translate(248.213256, 277.108171)"><g><path d="M 7.390625 -29.625 C 5.640625 -29.625 4.21875 -30.148438 3.125 -31.203125 C 2.03125 -32.265625 1.484375 -33.65625 1.484375 -35.375 C 1.484375 -37.082031 2.03125 -38.46875 3.125 -39.53125 C 4.21875 -40.59375 5.640625 -41.125 7.390625 -41.125 C 9.179688 -41.125 10.613281 -40.59375 11.6875 -39.53125 C 12.757812 -38.46875 13.296875 -37.082031 13.296875 -35.375 C 13.296875 -33.65625 12.757812 -32.265625 11.6875 -31.203125 C 10.613281 -30.148438 9.179688 -29.625 7.390625 -29.625 Z M 3.28125 0 C 2.59375 0 2.25 -0.347656 2.25 -1.046875 L 2.25 -27.4375 C 2.25 -28.125 2.59375 -28.46875 3.28125 -28.46875 L 11.5 -28.46875 C 12.1875 -28.46875 12.53125 -28.125 12.53125 -27.4375 L 12.53125 -1.046875 C 12.53125 -0.347656 12.1875 0 11.5 0 Z M 3.28125 0 "/></g></g></g><g fill="#fffdfd" fill-opacity="1"><g transform="translate(262.994732, 277.108171)"><g><path d="M 14.1875 -28.90625 C 16.664062 -28.90625 18.941406 -28.484375 21.015625 -27.640625 C 23.097656 -26.804688 24.742188 -25.660156 25.953125 -24.203125 C 27.160156 -22.742188 27.765625 -21.15625 27.765625 -19.4375 L 27.765625 -1.046875 C 27.765625 -0.347656 27.414062 0 26.71875 0 L 18.5 0 C 17.8125 0 17.46875 -0.347656 17.46875 -1.046875 L 17.46875 -2.03125 C 17.46875 -2.207031 17.421875 -2.3125 17.328125 -2.34375 C 17.234375 -2.382812 17.113281 -2.332031 16.96875 -2.1875 C 16.351562 -1.28125 15.492188 -0.613281 14.390625 -0.1875 C 13.296875 0.226562 11.929688 0.4375 10.296875 0.4375 C 7.296875 0.4375 4.9375 -0.242188 3.21875 -1.609375 C 1.507812 -2.984375 0.65625 -4.984375 0.65625 -7.609375 C 0.65625 -10.378906 1.628906 -12.515625 3.578125 -14.015625 C 5.535156 -15.515625 8.375 -16.265625 12.09375 -16.265625 L 17.03125 -16.265625 C 17.320312 -16.265625 17.46875 -16.410156 17.46875 -16.703125 L 17.46875 -17.515625 C 17.46875 -18.285156 17.179688 -18.90625 16.609375 -19.375 C 16.046875 -19.851562 15.289062 -20.09375 14.34375 -20.09375 C 13.71875 -20.09375 13.160156 -19.988281 12.671875 -19.78125 C 12.179688 -19.582031 11.828125 -19.320312 11.609375 -19 C 11.390625 -18.707031 11.207031 -18.503906 11.0625 -18.390625 C 10.914062 -18.285156 10.695312 -18.25 10.40625 -18.28125 L 1.96875 -19.375 C 1.3125 -19.445312 1.003906 -19.722656 1.046875 -20.203125 C 1.191406 -21.847656 1.851562 -23.328125 3.03125 -24.640625 C 4.21875 -25.953125 5.78125 -26.988281 7.71875 -27.75 C 9.65625 -28.519531 11.8125 -28.90625 14.1875 -28.90625 Z M 13.46875 -6.671875 C 14.632812 -6.671875 15.59375 -6.984375 16.34375 -7.609375 C 17.09375 -8.234375 17.46875 -9.070312 17.46875 -10.125 L 17.46875 -10.671875 C 17.46875 -10.960938 17.320312 -11.109375 17.03125 -11.109375 L 14.453125 -11.109375 C 12.148438 -11.109375 11 -10.363281 11 -8.875 C 11 -8.21875 11.207031 -7.6875 11.625 -7.28125 C 12.050781 -6.875 12.664062 -6.671875 13.46875 -6.671875 Z M 13.46875 -6.671875 "/></g></g></g><g fill="#fffdfd" fill-opacity="1"><g transform="translate(292.557685, 277.108171)"><g><path d="M 14.5625 0.4375 C 10.4375 0.4375 7.175781 -0.363281 4.78125 -1.96875 C 2.394531 -3.570312 1.203125 -5.707031 1.203125 -8.375 L 1.203125 -8.65625 C 1.203125 -9.34375 1.550781 -9.6875 2.25 -9.6875 L 10.015625 -9.6875 C 10.710938 -9.6875 11.0625 -9.597656 11.0625 -9.421875 L 11.0625 -9.09375 C 11.0625 -8.507812 11.378906 -8.035156 12.015625 -7.671875 C 12.648438 -7.304688 13.484375 -7.125 14.515625 -7.125 C 15.316406 -7.125 15.960938 -7.238281 16.453125 -7.46875 C 16.941406 -7.707031 17.1875 -8.046875 17.1875 -8.484375 C 17.1875 -8.992188 16.894531 -9.347656 16.3125 -9.546875 C 15.726562 -9.753906 14.6875 -9.984375 13.1875 -10.234375 C 11.800781 -10.421875 10.5625 -10.640625 9.46875 -10.890625 C 8.375 -11.148438 7.316406 -11.535156 6.296875 -12.046875 C 3.160156 -13.578125 1.59375 -15.984375 1.59375 -19.265625 C 1.59375 -22.222656 2.738281 -24.566406 5.03125 -26.296875 C 7.332031 -28.035156 10.363281 -28.90625 14.125 -28.90625 C 16.675781 -28.90625 18.910156 -28.492188 20.828125 -27.671875 C 22.742188 -26.847656 24.226562 -25.6875 25.28125 -24.1875 C 26.34375 -22.695312 26.875 -20.96875 26.875 -19 C 26.875 -18.59375 26.53125 -18.390625 25.84375 -18.390625 L 18.34375 -18.390625 C 18.007812 -18.390625 17.75 -18.425781 17.5625 -18.5 C 17.382812 -18.570312 17.296875 -18.644531 17.296875 -18.71875 L 17.296875 -19 C 17.296875 -19.613281 17.019531 -20.09375 16.46875 -20.4375 C 15.925781 -20.789062 15.203125 -20.96875 14.296875 -20.96875 C 13.453125 -20.96875 12.765625 -20.828125 12.234375 -20.546875 C 11.703125 -20.273438 11.4375 -19.90625 11.4375 -19.4375 C 11.4375 -18.851562 11.78125 -18.453125 12.46875 -18.234375 C 13.164062 -18.015625 14.285156 -17.796875 15.828125 -17.578125 C 16.003906 -17.535156 16.703125 -17.421875 17.921875 -17.234375 C 19.148438 -17.054688 20.332031 -16.769531 21.46875 -16.375 C 23.4375 -15.675781 24.941406 -14.710938 25.984375 -13.484375 C 27.023438 -12.265625 27.546875 -10.671875 27.546875 -8.703125 C 27.546875 -5.710938 26.375 -3.441406 24.03125 -1.890625 C 21.695312 -0.335938 18.539062 0.4375 14.5625 0.4375 Z M 14.5625 0.4375 "/></g></g></g><g fill="#e81414" fill-opacity="1"><g transform="translate(41.679509, 169.820043)"><g><path d="M 21.5625 1.453125 C 14.738281 1.453125 9.722656 -0.265625 6.515625 -3.703125 C 3.316406 -7.148438 1.71875 -12.863281 1.71875 -20.84375 C 1.71875 -27.1875 2.789062 -34.007812 4.9375 -41.3125 C 7.082031 -48.625 10.523438 -54.890625 15.265625 -60.109375 C 20.003906 -65.335938 26.03125 -67.953125 33.34375 -67.953125 C 37.875 -67.953125 41.523438 -66.957031 44.296875 -64.96875 C 47.078125 -62.976562 48.46875 -59.925781 48.46875 -55.8125 C 48.46875 -53.21875 47.953125 -51.179688 46.921875 -49.703125 C 45.898438 -48.222656 44.304688 -47.484375 42.140625 -47.484375 C 39.960938 -47.484375 38.238281 -48.265625 36.96875 -49.828125 C 38.050781 -50.378906 39.015625 -51.46875 39.859375 -53.09375 C 40.710938 -54.726562 41.140625 -56.421875 41.140625 -58.171875 C 41.140625 -59.804688 40.703125 -61.132812 39.828125 -62.15625 C 38.953125 -63.1875 37.546875 -63.703125 35.609375 -63.703125 C 32.410156 -63.703125 29.359375 -61.507812 26.453125 -57.125 C 23.554688 -52.75 21.21875 -47.238281 19.4375 -40.59375 C 17.65625 -33.945312 16.765625 -27.546875 16.765625 -21.390625 C 16.765625 -16.796875 17.546875 -13.289062 19.109375 -10.875 C 20.679688 -8.457031 23.523438 -7.25 27.640625 -7.25 C 31.203125 -7.25 34.492188 -8.03125 37.515625 -9.59375 C 40.535156 -11.164062 43.128906 -13.40625 45.296875 -16.3125 L 47.390625 -15.40625 C 45.878906 -11.59375 43.644531 -8.414062 40.6875 -5.875 C 37.726562 -3.34375 34.554688 -1.488281 31.171875 -0.3125 C 27.785156 0.863281 24.582031 1.453125 21.5625 1.453125 Z M 21.5625 1.453125 "/></g></g></g><g fill="#e81414" fill-opacity="1"><g transform="translate(86.70656, 169.820043)"><g><path d="M 10.875 0.546875 C 7.425781 0.546875 4.554688 -0.628906 2.265625 -2.984375 C -0.0234375 -5.347656 -1.171875 -9.035156 -1.171875 -14.046875 C -1.171875 -18.515625 -0.28125 -23.207031 1.5 -28.125 C 3.28125 -33.050781 5.9375 -37.21875 9.46875 -40.625 C 13 -44.039062 17.210938 -45.75 22.109375 -45.75 C 24.585938 -45.75 26.429688 -45.328125 27.640625 -44.484375 C 28.847656 -43.640625 29.453125 -42.523438 29.453125 -41.140625 L 29.453125 -40.5 L 30.4375 -45.296875 L 43.5 -45.296875 L 36.96875 -14.5 C 36.726562 -13.59375 36.609375 -12.625 36.609375 -11.59375 C 36.609375 -9 37.847656 -7.703125 40.328125 -7.703125 C 42.015625 -7.703125 43.476562 -8.484375 44.71875 -10.046875 C 45.957031 -11.617188 46.9375 -13.675781 47.65625 -16.21875 L 51.46875 -16.21875 C 49.226562 -9.695312 46.460938 -5.269531 43.171875 -2.9375 C 39.878906 -0.613281 36.570312 0.546875 33.25 0.546875 C 30.71875 0.546875 28.679688 -0.160156 27.140625 -1.578125 C 25.597656 -3.003906 24.675781 -5.078125 24.375 -7.796875 C 22.625 -5.316406 20.675781 -3.304688 18.53125 -1.765625 C 16.382812 -0.222656 13.832031 0.546875 10.875 0.546875 Z M 16.765625 -8.25 C 18.273438 -8.25 19.769531 -8.957031 21.25 -10.375 C 22.726562 -11.789062 23.738281 -13.738281 24.28125 -16.21875 L 28.625 -36.703125 C 28.625 -37.484375 28.320312 -38.25 27.71875 -39 C 27.125 -39.757812 26.191406 -40.140625 24.921875 -40.140625 C 22.503906 -40.140625 20.328125 -38.734375 18.390625 -35.921875 C 16.460938 -33.117188 14.953125 -29.738281 13.859375 -25.78125 C 12.773438 -21.820312 12.234375 -18.332031 12.234375 -15.3125 C 12.234375 -12.289062 12.671875 -10.359375 13.546875 -9.515625 C 14.421875 -8.671875 15.492188 -8.25 16.765625 -8.25 Z M 16.765625 -8.25 "/></g></g></g><g fill="#e81414" fill-opacity="1"><g transform="translate(134.360945, 169.820043)"><g><path d="M 55.09375 0.546875 C 51.40625 0.546875 48.703125 -0.429688 46.984375 -2.390625 C 45.265625 -4.359375 44.40625 -6.789062 44.40625 -9.6875 C 44.40625 -10.957031 44.550781 -12.394531 44.84375 -14 C 45.144531 -15.601562 45.460938 -17.160156 45.796875 -18.671875 C 46.128906 -20.179688 46.359375 -21.144531 46.484375 -21.5625 C 46.960938 -23.675781 47.410156 -25.757812 47.828125 -27.8125 C 48.253906 -29.863281 48.46875 -31.523438 48.46875 -32.796875 C 48.46875 -35.878906 47.382812 -37.421875 45.21875 -37.421875 C 43.644531 -37.421875 42.253906 -36.648438 41.046875 -35.109375 C 39.835938 -33.566406 38.867188 -31.554688 38.140625 -29.078125 L 31.984375 0 L 18.9375 0 L 25.546875 -31.265625 C 25.734375 -31.984375 25.828125 -32.738281 25.828125 -33.53125 C 25.828125 -36.1875 24.921875 -37.515625 23.109375 -37.515625 C 21.410156 -37.515625 19.941406 -36.742188 18.703125 -35.203125 C 17.472656 -33.660156 16.492188 -31.617188 15.765625 -29.078125 L 9.609375 0 L -3.4375 0 L 6.15625 -45.296875 L 19.203125 -45.296875 L 18.21875 -40.59375 C 21.289062 -44.03125 24.972656 -45.75 29.265625 -45.75 C 34.578125 -45.75 37.6875 -43.15625 38.59375 -37.96875 C 41.914062 -43.101562 46.113281 -45.671875 51.1875 -45.671875 C 54.269531 -45.671875 56.71875 -44.820312 58.53125 -43.125 C 60.34375 -41.4375 61.25 -38.867188 61.25 -35.421875 C 61.25 -33.671875 61.035156 -31.722656 60.609375 -29.578125 C 60.191406 -27.441406 59.59375 -24.832031 58.8125 -21.75 C 58.320312 -19.875 57.878906 -18.046875 57.484375 -16.265625 C 57.097656 -14.484375 56.90625 -13.078125 56.90625 -12.046875 C 56.90625 -10.835938 57.175781 -9.898438 57.71875 -9.234375 C 58.257812 -8.578125 59.195312 -8.25 60.53125 -8.25 C 62.34375 -8.25 63.789062 -8.894531 64.875 -10.1875 C 65.957031 -11.488281 67.046875 -13.5 68.140625 -16.21875 L 71.9375 -16.21875 C 69.707031 -9.570312 67.125 -5.113281 64.1875 -2.84375 C 61.257812 -0.582031 58.226562 0.546875 55.09375 0.546875 Z M 55.09375 0.546875 "/></g></g></g><g fill="#e81414" fill-opacity="1"><g transform="translate(202.4904, 169.820043)"><g><path d="M 12.953125 0.546875 C 8.484375 0.546875 5.007812 -0.613281 2.53125 -2.9375 C 0.0625 -5.269531 -1.171875 -8.910156 -1.171875 -13.859375 C -1.171875 -18.023438 -0.359375 -22.613281 1.265625 -27.625 C 2.898438 -32.644531 5.554688 -36.984375 9.234375 -40.640625 C 12.921875 -44.296875 17.601562 -46.125 23.28125 -46.125 C 29.925781 -46.125 33.25 -43.222656 33.25 -37.421875 C 33.25 -34.035156 32.28125 -30.921875 30.34375 -28.078125 C 28.414062 -25.242188 25.847656 -22.96875 22.640625 -21.25 C 19.441406 -19.53125 16.03125 -18.546875 12.40625 -18.296875 C 12.289062 -16.484375 12.234375 -15.273438 12.234375 -14.671875 C 12.234375 -11.710938 12.742188 -9.703125 13.765625 -8.640625 C 14.796875 -7.585938 16.457031 -7.0625 18.75 -7.0625 C 22.019531 -7.0625 24.816406 -7.816406 27.140625 -9.328125 C 29.460938 -10.835938 32.015625 -13.132812 34.796875 -16.21875 L 37.875 -16.21875 C 31.164062 -5.039062 22.859375 0.546875 12.953125 0.546875 Z M 13.140625 -22.65625 C 15.367188 -22.769531 17.492188 -23.550781 19.515625 -25 C 21.546875 -26.457031 23.179688 -28.300781 24.421875 -30.53125 C 25.660156 -32.769531 26.28125 -35.128906 26.28125 -37.609375 C 26.28125 -40.078125 25.523438 -41.3125 24.015625 -41.3125 C 21.835938 -41.3125 19.707031 -39.410156 17.625 -35.609375 C 15.539062 -31.804688 14.046875 -27.488281 13.140625 -22.65625 Z M 13.140625 -22.65625 "/></g></g></g><g fill="#e81414" fill-opacity="1"><g transform="translate(237.279899, 169.820043)"><g><path d="M 8.96875 0.546875 C 6.070312 0.546875 3.734375 -0.359375 1.953125 -2.171875 C 0.171875 -3.984375 -0.71875 -6.703125 -0.71875 -10.328125 C -0.71875 -11.835938 -0.476562 -13.800781 0 -16.21875 L 9.6875 -61.609375 L 23.109375 -63.421875 L 12.6875 -14.5 C 12.445312 -13.59375 12.328125 -12.625 12.328125 -11.59375 C 12.328125 -10.382812 12.613281 -9.523438 13.1875 -9.015625 C 13.757812 -8.503906 14.707031 -8.25 16.03125 -8.25 C 17.789062 -8.25 19.425781 -8.988281 20.9375 -10.46875 C 22.445312 -11.945312 23.53125 -13.863281 24.1875 -16.21875 L 28 -16.21875 C 25.757812 -9.695312 22.890625 -5.269531 19.390625 -2.9375 C 15.890625 -0.613281 12.414062 0.546875 8.96875 0.546875 Z M 8.96875 0.546875 "/></g></g></g><g fill="#e81414" fill-opacity="1"><g transform="translate(261.469481, 169.820043)"><g><path d="M 15.125 -50.203125 C 13.132812 -50.203125 11.441406 -50.894531 10.046875 -52.28125 C 8.660156 -53.664062 7.96875 -55.359375 7.96875 -57.359375 C 7.96875 -59.347656 8.660156 -61.050781 10.046875 -62.46875 C 11.441406 -63.894531 13.132812 -64.609375 15.125 -64.609375 C 17.125 -64.609375 18.832031 -63.894531 20.25 -62.46875 C 21.664062 -61.050781 22.375 -59.347656 22.375 -57.359375 C 22.375 -55.359375 21.664062 -53.664062 20.25 -52.28125 C 18.832031 -50.894531 17.125 -50.203125 15.125 -50.203125 Z M 8.96875 0.546875 C 6.070312 0.546875 3.734375 -0.359375 1.953125 -2.171875 C 0.171875 -3.984375 -0.71875 -6.703125 -0.71875 -10.328125 C -0.71875 -11.835938 -0.476562 -13.800781 0 -16.21875 L 6.15625 -45.296875 L 19.203125 -45.296875 L 12.6875 -14.5 C 12.445312 -13.59375 12.328125 -12.625 12.328125 -11.59375 C 12.328125 -10.382812 12.613281 -9.523438 13.1875 -9.015625 C 13.757812 -8.503906 14.707031 -8.25 16.03125 -8.25 C 17.789062 -8.25 19.425781 -8.988281 20.9375 -10.46875 C 22.445312 -11.945312 23.53125 -13.863281 24.1875 -16.21875 L 28 -16.21875 C 25.757812 -9.695312 22.890625 -5.269531 19.390625 -2.9375 C 15.890625 -0.613281 12.414062 0.546875 8.96875 0.546875 Z M 8.96875 0.546875 "/></g></g></g><g fill="#e81414" fill-opacity="1"><g transform="translate(285.659062, 169.820043)"><g><path d="M 10.875 0.546875 C 7.425781 0.546875 4.554688 -0.628906 2.265625 -2.984375 C -0.0234375 -5.347656 -1.171875 -9.035156 -1.171875 -14.046875 C -1.171875 -18.515625 -0.28125 -23.207031 1.5 -28.125 C 3.28125 -33.050781 5.9375 -37.21875 9.46875 -40.625 C 13 -44.039062 17.210938 -45.75 22.109375 -45.75 C 24.585938 -45.75 26.429688 -45.328125 27.640625 -44.484375 C 28.847656 -43.640625 29.453125 -42.523438 29.453125 -41.140625 L 29.453125 -40.5 L 30.4375 -45.296875 L 43.5 -45.296875 L 36.96875 -14.5 C 36.726562 -13.59375 36.609375 -12.625 36.609375 -11.59375 C 36.609375 -9 37.847656 -7.703125 40.328125 -7.703125 C 42.015625 -7.703125 43.476562 -8.484375 44.71875 -10.046875 C 45.957031 -11.617188 46.9375 -13.675781 47.65625 -16.21875 L 51.46875 -16.21875 C 49.226562 -9.695312 46.460938 -5.269531 43.171875 -2.9375 C 39.878906 -0.613281 36.570312 0.546875 33.25 0.546875 C 30.71875 0.546875 28.679688 -0.160156 27.140625 -1.578125 C 25.597656 -3.003906 24.675781 -5.078125 24.375 -7.796875 C 22.625 -5.316406 20.675781 -3.304688 18.53125 -1.765625 C 16.382812 -0.222656 13.832031 0.546875 10.875 0.546875 Z M 16.765625 -8.25 C 18.273438 -8.25 19.769531 -8.957031 21.25 -10.375 C 22.726562 -11.789062 23.738281 -13.738281 24.28125 -16.21875 L 28.625 -36.703125 C 28.625 -37.484375 28.320312 -38.25 27.71875 -39 C 27.125 -39.757812 26.191406 -40.140625 24.921875 -40.140625 C 22.503906 -40.140625 20.328125 -38.734375 18.390625 -35.921875 C 16.460938 -33.117188 14.953125 -29.738281 13.859375 -25.78125 C 12.773438 -21.820312 12.234375 -18.332031 12.234375 -15.3125 C 12.234375 -12.289062 12.671875 -10.359375 13.546875 -9.515625 C 14.421875 -8.671875 15.492188 -8.25 16.765625 -8.25 Z M 16.765625 -8.25 "/></g></g></g></svg>